<?xml version="1.0" encoding="utf-8"?>
<!-- Generator: Adobe Illustrator 16.0.0, SVG Export Plug-In . SVG Version: 6.00 Build 0)  -->
<!DOCTYPE svg PUBLIC "-//W3C//DTD SVG 1.1//EN" "http://www.w3.org/Graphics/SVG/1.1/DTD/svg11.dtd">
<svg version="1.1" id="Layer_1" xmlns="http://www.w3.org/2000/svg" xmlns:xlink="http://www.w3.org/1999/xlink" x="0px" y="0px"
	 width="1500px" height="960px" viewBox="0 0 1500 960" enable-background="new 0 0 1500 960" xml:space="preserve">
<linearGradient id="SVGID_1_" gradientUnits="userSpaceOnUse" x1="751.1445" y1="1051.0576" x2="751.1445" y2="-114.9794">
	<stop  offset="0.0299" style="stop-color:#6A431A"/>
	<stop  offset="0.1099" style="stop-color:#846439"/>
	<stop  offset="0.1364" style="stop-color:#CAA12C"/>
	<stop  offset="0.1416" style="stop-color:#C7A63B"/>
	<stop  offset="0.1574" style="stop-color:#C0B263"/>
	<stop  offset="0.1748" style="stop-color:#B9BE86"/>
	<stop  offset="0.1936" style="stop-color:#B3C7A4"/>
	<stop  offset="0.2143" style="stop-color:#AFCFBC"/>
	<stop  offset="0.2376" style="stop-color:#ABD5CE"/>
	<stop  offset="0.2651" style="stop-color:#A9D9DB"/>
	<stop  offset="0.3009" style="stop-color:#A7DBE3"/>
	<stop  offset="0.3747" style="stop-color:#A7DCE5"/>
	<stop  offset="0.4209" style="stop-color:#9CD3E4"/>
	<stop  offset="0.5393" style="stop-color:#87C1E2"/>
	<stop  offset="0.6534" style="stop-color:#79B6E1"/>
	<stop  offset="0.7577" style="stop-color:#75B2E1"/>
	<stop  offset="0.7966" style="stop-color:#6FBBDB"/>
	<stop  offset="0.8645" style="stop-color:#69C5D6"/>
	<stop  offset="0.9548" style="stop-color:#67C8D4"/>
</linearGradient>
<polygon fill="url(#SVGID_1_)" points="1500.535,958.172 1.057,958.109 1.057,0 1501.232,0 "/>
<g>
	<path opacity="0.4" fill="#FFFFFF" d="M1027.306,816.095c0,0-82.794,0-166.878,0c-1.993,0.005-3.991,0.01-5.993,0.011
		c-13.17-0.643-25.11,4.817-37.843,5.888c-1.82,0.152-3.654,0.217-5.511,0.161c-1.888-0.151-3.737-0.39-5.564-0.683
		c-17.79-5.196-36.189-6.554-54.275-2.556c-2.637,0.132-5.278,0.242-7.927,0.32c-4.422,0.04-8.807-0.054-13.17-0.222
		c-2.185-0.085-4.355-0.188-6.541-0.302c-2.287-0.029-4.565-0.141-6.833-0.293c-25.988-0.335-54.292-4.858-79.059,2.379
		c-5.662,1.807-12.03-0.906-16.778-3.194c-1.307-0.577-2.563-1.178-3.744-1.782c2.035,0.283,4.039,0.432,5.987,0.476
		c13.118,0.881,23.734-7.258,36.47-3.639c8.492,2.259,10.614-5.428,19.525-4.702c0,0,35.025,0,41.394-7.46
		c6.367-7.461,15.919-20.348,30.779-17.637c14.862,2.715,20.168-10.171,39.272-13.564c19.104-3.39,47.761,2.715,47.761,2.715
		s19.104,7.461,27.596-1.357c8.494-8.816,23.351-16.277,32.902-14.243c9.555,2.035,33.966,5.427,35.025,8.818
		c1.063,3.392,14.823,20.31,8.474,20.328s-5.699,5.778-0.719,4.594c4.984-1.185,11.49-11.706,20.974-9.836
		s22.274-2.783,28.085,7.342c5.81,10.127,1.564,14.196,1.564,14.196s7.431-3.392,22.292,0.679
		C1029.43,806.6,1027.306,816.095,1027.306,816.095z"/>
	<path opacity="0.4" fill="#FFFFFF" d="M953.9,814.179c0,0-52.962,0-106.751,0c-1.273,0.003-2.554,0.005-3.833,0.007
		c-8.427-0.411-16.063,3.081-24.209,3.767c-1.165,0.099-2.34,0.139-3.526,0.104c-1.207-0.098-2.389-0.252-3.561-0.439
		c-11.377-3.323-23.149-4.189-34.716-1.634c-1.689,0.085-3.378,0.156-5.072,0.206c-2.829,0.026-5.634-0.033-8.424-0.143
		c-1.396-0.054-2.787-0.119-4.188-0.191c-1.461-0.02-2.917-0.092-4.368-0.189c-16.624-0.214-34.731-3.105-50.576,1.521
		c-3.62,1.158-7.695-0.577-10.731-2.041c-0.837-0.369-1.642-0.755-2.397-1.142c1.302,0.183,2.585,0.277,3.831,0.306
		c8.391,0.563,15.183-4.643,23.33-2.328c5.431,1.446,6.791-3.47,12.489-3.007c0,0,22.408,0,26.48-4.775
		c4.074-4.771,10.186-13.014,19.69-11.278c9.503,1.734,12.901-6.509,25.12-8.679c12.224-2.167,30.553,1.736,30.553,1.736
		s12.222,4.774,17.655-0.869c5.432-5.638,14.937-10.412,21.049-9.109c6.112,1.302,21.726,3.472,22.407,5.64
		c0.678,2.17,9.479,12.992,5.419,13.004s-3.647,3.696-0.46,2.939c3.186-0.758,7.35-7.49,13.415-6.292
		c6.066,1.196,14.248-1.782,17.967,4.696c3.717,6.479,1,9.081,1,9.081s4.754-2.168,14.257,0.435
		C955.263,808.104,953.9,814.179,953.9,814.179z"/>
</g>
<g>
	<path opacity="0.4" fill="#FFFFFF" d="M45.075,749.071c0,0,17.699-1.598,44.964-4.055c3.408-0.308,6.967-0.628,10.663-0.961
		c21.613-1.505,42.059-5.943,62.551-9.785c4.099-0.767,8.198-1.509,12.311-2.203c54.395-5.867,106.287-23.05,163.45-16.676
		c3.625-0.037,7.278-0.111,10.937-0.206c4.879-0.127,9.761-0.29,14.651-0.475c32.32-2.604,65.62-1.761,98.919-0.919
		c1.476-0.131,0.851-2.959,2.119-4.035c-30.972-3.941-61.963-1.145-93.58-5.551c-4.569-0.513-9.097-1.114-13.567-1.827
		c-13.409-2.14-26.299-5.308-38.237-10.287c-3.368-1.622-8.112-0.952-13.181-0.527c-5.061,0.419-10.441,0.596-15.148-1.992
		c-3.75-1.845-7.494-3.956-11.93-4.604c-3.71-1.309-7.864-2.378-12.737-2.788c-19.488-1.635-46.293,6.893-46.293,6.893
		s-17.137,9.015-27.385,1.113c-10.245-7.906-26.447-13.913-35.384-11.07c-8.936,2.844-32.162,8.334-32.469,11.756
		c-0.154,1.712-2.69,7.024-4.409,11.841c-1.718,4.815-2.618,9.137,0.501,8.865c6.24-0.54,6.839,5.182,1.702,4.453
		c-2.571-0.365-6.032-2.988-9.954-5.182s-8.315-3.966-12.767-2.628c-8.903,2.677-22.468-0.76-25.976,9.696
		c-3.507,10.454,1.541,14.072,1.541,14.072s-8.028-2.67-21.732,2.638C40.931,739.938,45.075,749.071,45.075,749.071z"/>
	<path opacity="0.4" fill="#FFFFFF" d="M67.496,744.591c0,0,7.475-0.675,19.898-1.795c4.14-0.373,8.83-0.794,13.977-1.262
		c20.535-1.759,39.041-4.748,58.796-8.642c3.951-0.778,7.951-1.595,12.029-2.444c3.339-0.78,6.73-1.327,10.157-1.716
		c3.565-0.446,7.152-0.728,10.866-0.976c23.457-0.356,44.969-5.182,68.164-9.198c27.622-4.415,55.454-7.885,84.074-6.875
		c5.793,0.28,11.605,0.721,17.345,1.104c5.141,0.335,10.226,0.623,15.289,0.7c9.979-0.583,20.726,0.371,30.43-3.388
		c-10.747-0.956-19.601-0.156-30.125-0.912c-4.589-0.064-9.11-0.106-13.625-0.174c-6.728-0.106-13.435-0.27-20.139-0.664
		c-3.354-0.199-6.705-0.456-10.049-0.796c-34.378-4.036-65.975-10.805-100.073-14.339c-4.255-0.172-8.499-0.103-12.722,0.299
		c-8.444,0.803-16.81,2.933-25.033,7.113c-4.344,0.984-9.682,1.202-13.654-1.876c-3.98-3.078-9.128-5.783-14.149-7.444
		c-5.02-1.664-9.912-2.279-13.39-1.172c-6.956,2.211-25.039,6.484-25.276,9.151c-0.121,1.331-2.094,5.468-3.431,9.216
		c-4.986,5.326,2.6,5.604,3.642,10.319c-4.427,0.401-5.261-3.373-9.673-3.984c-3.057-1.709-6.476-3.086-9.941-2.046
		c-6.932,2.083-17.492-0.591-20.223,7.547c-2.73,8.14,1.201,10.955,1.201,10.955s-6.25-2.08-16.918,2.055
		C64.271,737.482,67.496,744.591,67.496,744.591z"/>
</g>
<path opacity="0.6" fill="#799A3D" d="M1417.368,859.703c-39.329-3.697-77.761-9.372-115.514-15.609
	c-35.032-5.787-70.005-11.746-106.795-14.559c-26.781-1.28-53.919-0.786-80.753-0.094c-27.257,0.706-54.418,1.908-81.49,3.502
	c-46.202,3.045-91.839,7.595-138.146,10.33c-42.929,2.535-86.376,3.432-129.583,1.994c-47.324-1.57-94.636-5.113-140.313-11.085
	c-20.79-2.719-41.232-5.887-62.306-8.146c-16.586-1.779-33.298-3.229-50.129-4.385c-64.104-3.614-128.849-2.815-192.845,0.911
	c-109.367,7.245-215.41,22.425-318.779,40.165c0.313,42.974,0.69,96.179,0.69,95.625c0-0.946,1498.578,0.053,1498.578,0.053
	l0.299-93.903C1473.655,863.842,1443.57,862.166,1417.368,859.703z"/>
<path opacity="0.2" fill="#8FB83E" d="M102.875,858.917c21.745,0.446,42.997-2.934,62.122-6.311
	c35.063-4.648,66.41-13.729,98.817-21.333c6.482-1.521,13.007-2.982,19.611-4.34c37.396-7.726,76.887-11.726,116.416-12.439
	c7.908-0.145,15.815-0.155,23.708-0.037c58.373,1.455,114.928,8.236,166.77,19.973c6.481,1.466,12.902,3.018,19.318,4.676
	c22.884,7.584,50.511,10.121,80.26,10.121c-8.497-7.605-16.999-16.054-32.135-22.603c-4.39-2.033-9.173-3.942-14.266-5.748
	c-20.372-7.23-45.711-12.819-69.823-17.658c-6.238-1.467-12.462-2.942-18.707-4.406c-31.211-7.315-62.846-14.3-98.507-17.964
	c-6.52-0.736-13.1-1.383-19.746-1.929c-19.938-1.644-40.451-2.392-61.559-2.046c-7.476-0.053-14.91-0.024-22.341,0.092
	c-7.429,0.116-14.856,0.315-22.261,0.601c-7.408,0.281-14.793,0.649-22.143,1.104c-6.638,0.738-13.52,1.477-20.568,2.229
	c-7.071,0.76-14.308,1.534-21.714,2.359c-77.118,8.584-187.116,26.336-196.727,61.12c-0.869,3.163-0.907,6.468-0.007,9.914
	c2.206,2.535,10.987,1.687,16.313,3.665C90.758,858.46,96.437,858.793,102.875,858.917z"/>
<path opacity="0.2" fill="#8FB83E" d="M904.328,876.411c21.747,0.446,42.999-2.933,62.125-6.312
	c35.065-4.646,66.407-13.729,98.818-21.332c6.478-1.519,13.006-2.98,19.609-4.338c37.397-7.727,76.89-11.726,116.416-12.441
	c7.906-0.142,15.813-0.152,23.709-0.036c58.374,1.455,114.929,8.236,166.77,19.972c6.479,1.47,12.902,3.018,19.318,4.676
	c22.886,7.585,50.512,10.119,80.263,10.119c-8.5-7.604-17-16.05-32.141-22.6c-4.388-2.031-9.172-3.94-14.263-5.748
	c-20.373-7.229-45.713-12.818-69.825-17.658c-6.238-1.467-12.463-2.943-18.704-4.406c-31.213-7.315-62.847-14.299-98.509-17.963
	c-6.521-0.738-13.102-1.384-19.746-1.932c-19.938-1.643-40.451-2.391-61.558-2.045c-7.476-0.053-14.906-0.023-22.341,0.092
	c-7.432,0.116-14.856,0.317-22.263,0.602c-7.407,0.281-14.792,0.648-22.144,1.104c-6.638,0.739-13.516,1.478-20.567,2.23
	c-7.07,0.758-14.306,1.533-21.713,2.359c-77.118,8.582-187.116,26.335-196.729,61.12c-0.868,3.162-0.904,6.466-0.007,9.916
	c2.207,2.532,10.987,1.684,16.313,3.662C892.213,875.956,897.893,876.286,904.328,876.411z"/>
<path opacity="0.2" fill="#8FB83E" d="M807.01,824.69c47.998,2.747,95.543-4.482,143.18-10.034
	c4.334-0.505,8.665-0.993,13.006-1.462c24.713-4.071,49.553-6.273,74.005-6.311c4.893-0.009,9.77,0.071,14.628,0.241
	c4.689,0.361,9.393,0.688,14.104,0.998c4.713,0.308,9.431,0.594,14.151,0.878c27.803,3.322,60.837,1.726,91.061,3.268
	c4.33,0.224,8.598,0.509,12.803,0.889c11.747,2.502,24.953,4.686,38.285,7.219c2.668,0.507,5.348,1.028,8.018,1.568
	c11.42,2.757,22.859,4.832,34.273,6.805c3.803,0.657,7.603,1.304,11.405,1.96c3.673,0.869,7.364,1.678,11.066,2.437
	c3.707,0.758,7.425,1.464,11.155,2.124c37.755,5.638,87.488,13.788,109.168,1.563c19.13-10.592-38.258-17.111-60.252-27.46
	c-3.404-1.213-6.803-2.433-10.201-3.655c-30.578-11.004-60.991-22.255-92.869-31.224c-21.757-5.568-44.115-9.762-67.268-12.145
	c-14.429-1.026-28.882-1.41-43.335-1.341c-6.728,2.374-14.129,3.37-22.464,3.921c-0.649,0.043-1.302,0.098-1.949,0.146
	c-11.295,1.146-22.476,2.696-33.559,4.531c-3.786,0.637-7.558,1.304-11.41,2.019c-4.443,1.052-8.91,2.065-13.389,3.053
	c-4.501,0.995-9.014,1.96-13.558,2.909c-4.521,0.974-9.068,1.918-13.628,2.839c-4.564,0.925-9.143,1.825-13.736,2.711
	c-67.841,16.212-143.078,20.285-208.119,41.472c1.276,0,1.276,0,2.49-0.347C804.951,824.398,805.922,824.538,807.01,824.69z"/>
<path fill="#8FB83E" d="M1126.829,870.521c-3.577-0.966-7.155-1.931-10.734-2.896
	C1119.663,868.605,1123.243,869.565,1126.829,870.521z"/>
<g>
	<g>
		<linearGradient id="SVGID_2_" gradientUnits="userSpaceOnUse" x1="1369.3467" y1="877.3887" x2="1455.8644" y2="1117.5629">
			<stop  offset="0.025" style="stop-color:#3B491F"/>
			<stop  offset="0.2779" style="stop-color:#6E8036"/>
			<stop  offset="0.4978" style="stop-color:#7D9839"/>
			<stop  offset="0.8086" style="stop-color:#95C03D"/>
		</linearGradient>
		<path fill="url(#SVGID_2_)" d="M1462.383,958.007c-3.085-4.711-5.632-9.673-7.591-14.879
			c-8.646-22.883-12.792-58.388-0.839-80.963c-30.573,0.109-46.257-18.084-95.246,6.553c-33.576,16.877-45.946,57.656-50.409,89.289
			H1462.383z"/>
		<linearGradient id="SVGID_3_" gradientUnits="userSpaceOnUse" x1="1391.0391" y1="785.7061" x2="1396.5109" y2="942.3991">
			<stop  offset="0.3427" style="stop-color:#45612D"/>
			<stop  offset="0.3917" style="stop-color:#48642E"/>
			<stop  offset="0.4299" style="stop-color:#506E2F"/>
			<stop  offset="0.4645" style="stop-color:#5E7E32"/>
			<stop  offset="0.4969" style="stop-color:#719636"/>
			<stop  offset="0.5275" style="stop-color:#8BB43B"/>
			<stop  offset="0.5382" style="stop-color:#95C03D"/>
			<stop  offset="0.5761" style="stop-color:#92BC3D"/>
			<stop  offset="0.6174" style="stop-color:#8AAF3B"/>
			<stop  offset="0.66" style="stop-color:#7D9939"/>
			<stop  offset="0.6968" style="stop-color:#6E8036"/>
			<stop  offset="0.7536" style="stop-color:#566E31"/>
			<stop  offset="0.7892" style="stop-color:#45612D"/>
		</linearGradient>
		<path fill="url(#SVGID_3_)" d="M1309.866,958.007c3.841-26.525,12.539-57.731,32.128-72.443
			c50.688-38.063,70.744-9.047,70.744,3.123c0,28.545-33.98,27.765-33.98,27.765s76.867,12.167,98.589-6.553
			c21.724-18.719,29.245-54.287-31.751-54.287c-50.152,0-76.906-6.146-116.967,29.952c-19.463,17.54-27.354,47.318-30.396,72.443
			H1309.866z"/>
		<path fill="#7E993C" d="M1309.872,958.007c3.838-26.202,12.526-56.99,32.063-71.662c50.688-38.063,70.738-9.049,70.738,3.117
			c0,28.55-33.979,27.77-33.979,27.77s1.771,0.28,4.826,0.689c9.965-0.903,33.62-5.734,33.62-31.338
			c0-13.823-22.405-46.786-79.047-3.548c-20.278,15.48-30.058,46.704-34.771,74.972H1309.872z"/>
	</g>
	<g>
		<linearGradient id="SVGID_4_" gradientUnits="userSpaceOnUse" x1="1240.0283" y1="859.2041" x2="1326.7526" y2="1099.9517">
			<stop  offset="0.025" style="stop-color:#3B491F"/>
			<stop  offset="0.2779" style="stop-color:#6E8036"/>
			<stop  offset="0.4978" style="stop-color:#7D9839"/>
			<stop  offset="0.8086" style="stop-color:#95C03D"/>
		</linearGradient>
		<path fill="url(#SVGID_4_)" d="M1355.489,958.007c-12.551-9.57-21.034-21.324-26.025-34.538
			c-8.64-22.881-12.783-58.385-0.835-80.959c-30.569,0.108-46.252-18.083-95.248,6.551c-41.153,20.695-50.466,77.307-52.376,108.946
			H1355.489z"/>
		<linearGradient id="SVGID_5_" gradientUnits="userSpaceOnUse" x1="1264.5801" y1="765.9492" x2="1270.0631" y2="922.9636">
			<stop  offset="0.3427" style="stop-color:#45612D"/>
			<stop  offset="0.3917" style="stop-color:#48642E"/>
			<stop  offset="0.4299" style="stop-color:#506E2F"/>
			<stop  offset="0.4645" style="stop-color:#5E7E32"/>
			<stop  offset="0.4969" style="stop-color:#719636"/>
			<stop  offset="0.5275" style="stop-color:#8BB43B"/>
			<stop  offset="0.5382" style="stop-color:#95C03D"/>
			<stop  offset="0.5761" style="stop-color:#92BC3D"/>
			<stop  offset="0.6174" style="stop-color:#8AAF3B"/>
			<stop  offset="0.66" style="stop-color:#7D9939"/>
			<stop  offset="0.6968" style="stop-color:#6E8036"/>
			<stop  offset="0.7536" style="stop-color:#566E31"/>
			<stop  offset="0.7892" style="stop-color:#45612D"/>
		</linearGradient>
		<path fill="url(#SVGID_5_)" d="M1182.403,958.007c2.14-28.535,9.503-73.499,34.274-92.1c50.684-38.062,70.732-9.047,70.732,3.121
			c0,28.547-33.973,27.769-33.973,27.769s76.863,12.168,98.587-6.554c21.722-18.717,29.243-54.286-31.749-54.286
			c-50.159,0-76.91-6.146-116.972,29.95c-24.922,22.456-30.868,64.974-31.972,92.1H1182.403z"/>
		<path fill="#7E993C" d="M1182.387,958.007c2.123-28.223,9.461-72.72,34.226-91.317c50.69-38.061,70.739-9.047,70.739,3.12
			c0,28.545-33.973,27.766-33.973,27.766s1.761,0.28,4.822,0.688c9.96-0.901,33.617-5.732,33.617-31.34
			c0-13.819-22.405-46.779-79.043-3.542c-25.164,19.21-34.171,62.668-37.378,94.626H1182.387z"/>
	</g>
	<g>
		<linearGradient id="SVGID_6_" gradientUnits="userSpaceOnUse" x1="1069.8154" y1="835.249" x2="1158.5404" y2="1081.5504">
			<stop  offset="0.025" style="stop-color:#3B491F"/>
			<stop  offset="0.2779" style="stop-color:#6E8036"/>
			<stop  offset="0.4978" style="stop-color:#7D9839"/>
			<stop  offset="0.8086" style="stop-color:#95C03D"/>
		</linearGradient>
		<path fill="url(#SVGID_6_)" d="M1226.208,958.007c-42.141-8.975-65.64-29.513-75.54-55.715
			c-8.641-22.887-12.785-58.39-0.833-80.964c-30.57,0.109-46.252-18.085-95.243,6.551c-55.097,27.703-53.126,119.765-52.727,130.128
			H1226.208z"/>
		<linearGradient id="SVGID_7_" gradientUnits="userSpaceOnUse" x1="1085.4082" y1="744.6553" x2="1090.9009" y2="901.9463">
			<stop  offset="0.3427" style="stop-color:#45612D"/>
			<stop  offset="0.3917" style="stop-color:#48642E"/>
			<stop  offset="0.4299" style="stop-color:#506E2F"/>
			<stop  offset="0.4645" style="stop-color:#5E7E32"/>
			<stop  offset="0.4969" style="stop-color:#719636"/>
			<stop  offset="0.5275" style="stop-color:#8BB43B"/>
			<stop  offset="0.5382" style="stop-color:#95C03D"/>
			<stop  offset="0.5761" style="stop-color:#92BC3D"/>
			<stop  offset="0.6174" style="stop-color:#8AAF3B"/>
			<stop  offset="0.66" style="stop-color:#7D9939"/>
			<stop  offset="0.6968" style="stop-color:#6E8036"/>
			<stop  offset="0.7536" style="stop-color:#566E31"/>
			<stop  offset="0.7892" style="stop-color:#45612D"/>
		</linearGradient>
		<path fill="url(#SVGID_7_)" d="M1002.755,958.007c0.04-17.596,2.274-88.612,35.123-113.282
			c50.688-38.063,70.739-9.046,70.739,3.121c0,28.55-33.98,27.77-33.98,27.77s76.869,12.168,98.588-6.553
			c21.725-18.72,29.247-54.287-31.741-54.287c-50.164,0-76.912-6.148-116.973,29.949c-33.562,30.243-32.718,96.872-31.968,113.282
			H1002.755z"/>
		<path fill="#7E993C" d="M1002.755,958.007c0.011-17.013,2.081-87.729,35.065-112.499c50.685-38.063,70.733-9.048,70.733,3.12
			c0,28.549-33.976,27.768-33.976,27.768s1.773,0.279,4.827,0.688c9.958-0.902,33.617-5.732,33.617-31.34
			c0-13.82-22.402-46.779-79.048-3.543c-31.423,23.989-37.655,85.817-38.856,115.807H1002.755z"/>
	</g>
	<g>
		<linearGradient id="SVGID_8_" gradientUnits="userSpaceOnUse" x1="930.1631" y1="878.5703" x2="1016.7047" y2="1118.8105">
			<stop  offset="0.025" style="stop-color:#3B491F"/>
			<stop  offset="0.2779" style="stop-color:#6E8036"/>
			<stop  offset="0.4978" style="stop-color:#7D9839"/>
			<stop  offset="0.8086" style="stop-color:#95C03D"/>
		</linearGradient>
		<path fill="url(#SVGID_8_)" d="M1022.127,958.007c-2.722-4.331-5.015-8.856-6.804-13.597c-8.646-22.883-12.789-58.39-0.842-80.962
			c-30.568,0.107-46.245-18.085-95.244,6.549c-33.113,16.653-45.607,56.566-50.224,88.01H1022.127z"/>
		<linearGradient id="SVGID_9_" gradientUnits="userSpaceOnUse" x1="951.6709" y1="786.998" x2="957.1418" y2="943.6665">
			<stop  offset="0.3427" style="stop-color:#45612D"/>
			<stop  offset="0.3917" style="stop-color:#48642E"/>
			<stop  offset="0.4299" style="stop-color:#506E2F"/>
			<stop  offset="0.4645" style="stop-color:#5E7E32"/>
			<stop  offset="0.4969" style="stop-color:#719636"/>
			<stop  offset="0.5275" style="stop-color:#8BB43B"/>
			<stop  offset="0.5382" style="stop-color:#95C03D"/>
			<stop  offset="0.5761" style="stop-color:#92BC3D"/>
			<stop  offset="0.6174" style="stop-color:#8AAF3B"/>
			<stop  offset="0.66" style="stop-color:#7D9939"/>
			<stop  offset="0.6968" style="stop-color:#6E8036"/>
			<stop  offset="0.7536" style="stop-color:#566E31"/>
			<stop  offset="0.7892" style="stop-color:#45612D"/>
		</linearGradient>
		<path fill="url(#SVGID_9_)" d="M870.586,958.007c3.94-26.241,12.664-56.683,31.943-71.158
			c50.688-38.064,70.735-9.051,70.735,3.118c0,28.546-33.972,27.768-33.972,27.768s76.866,12.167,98.585-6.553
			c21.722-18.717,29.244-54.288-31.749-54.288c-50.154,0-76.905-6.144-116.969,29.955c-19.132,17.24-27.077,46.309-30.24,71.158
			H870.586z"/>
		<path fill="#7E993C" d="M870.597,958.007c3.938-25.919,12.653-55.947,31.869-70.379c50.688-38.064,70.741-9.048,70.741,3.121
			c0,28.547-33.976,27.764-33.976,27.764s1.768,0.282,4.824,0.69c9.964-0.903,33.62-5.736,33.62-31.34
			c0-13.82-22.407-46.781-79.049-3.544c-19.966,15.243-29.764,45.765-34.559,73.688H870.597z"/>
	</g>
	<g>
		<linearGradient id="SVGID_10_" gradientUnits="userSpaceOnUse" x1="800.7988" y1="860.3955" x2="887.476" y2="1101.0123">
			<stop  offset="0.025" style="stop-color:#3B491F"/>
			<stop  offset="0.2779" style="stop-color:#6E8036"/>
			<stop  offset="0.4978" style="stop-color:#7D9839"/>
			<stop  offset="0.8086" style="stop-color:#95C03D"/>
		</linearGradient>
		<path fill="url(#SVGID_10_)" d="M914.363,958.007c-11.648-9.331-19.6-20.629-24.365-33.254
			c-8.644-22.882-12.788-58.387-0.838-80.964c-30.568,0.113-46.253-18.081-95.242,6.554
			c-40.609,20.418-50.216,75.799-52.301,107.664H914.363z"/>
		<linearGradient id="SVGID_11_" gradientUnits="userSpaceOnUse" x1="825.165" y1="767.2334" x2="830.6476" y2="924.2328">
			<stop  offset="0.3427" style="stop-color:#45612D"/>
			<stop  offset="0.3917" style="stop-color:#48642E"/>
			<stop  offset="0.4299" style="stop-color:#506E2F"/>
			<stop  offset="0.4645" style="stop-color:#5E7E32"/>
			<stop  offset="0.4969" style="stop-color:#719636"/>
			<stop  offset="0.5275" style="stop-color:#8BB43B"/>
			<stop  offset="0.5382" style="stop-color:#95C03D"/>
			<stop  offset="0.5761" style="stop-color:#92BC3D"/>
			<stop  offset="0.6174" style="stop-color:#8AAF3B"/>
			<stop  offset="0.66" style="stop-color:#7D9939"/>
			<stop  offset="0.6968" style="stop-color:#6E8036"/>
			<stop  offset="0.7536" style="stop-color:#566E31"/>
			<stop  offset="0.7892" style="stop-color:#45612D"/>
		</linearGradient>
		<path fill="url(#SVGID_11_)" d="M743.037,958.007c2.262-28.583,9.764-72.488,34.171-90.815
			c50.684-38.063,70.737-9.048,70.737,3.12c0,28.55-33.978,27.767-33.978,27.767s76.865,12.169,98.585-6.552
			c21.726-18.723,29.243-54.288-31.745-54.288c-50.157,0-76.912-6.146-116.972,29.953c-24.537,22.109-30.673,63.65-31.912,90.815
			H743.037z"/>
		<path fill="#7E993C" d="M743.022,958.007c2.246-28.271,9.725-71.714,34.124-90.036c50.687-38.063,70.74-9.047,70.74,3.122
			c0,28.547-33.979,27.769-33.979,27.769s1.771,0.276,4.824,0.685c9.96-0.9,33.62-5.731,33.62-31.337
			c0-13.822-22.408-46.781-79.047-3.548c-24.832,18.958-33.92,61.516-37.242,93.346H743.022z"/>
	</g>
</g>
<g>
	<g>
		
			<linearGradient id="SVGID_12_" gradientUnits="userSpaceOnUse" x1="971.9619" y1="877.8428" x2="1058.4811" y2="1118.0209" gradientTransform="matrix(-1 0 0 1 1104.8906 0)">
			<stop  offset="0.025" style="stop-color:#3B491F"/>
			<stop  offset="0.2779" style="stop-color:#6E8036"/>
			<stop  offset="0.4978" style="stop-color:#7D9839"/>
			<stop  offset="0.8086" style="stop-color:#95C03D"/>
		</linearGradient>
		<path fill="url(#SVGID_12_)" d="M39.892,958.462c3.084-4.711,5.632-9.671,7.596-14.88c8.644-22.885,12.786-58.391,0.836-80.963
			c30.571,0.11,46.253-18.083,95.245,6.553c33.577,16.879,45.948,57.658,50.406,89.29H39.892z"/>
		
			<linearGradient id="SVGID_13_" gradientUnits="userSpaceOnUse" x1="995.041" y1="785.7627" x2="1000.5128" y2="942.4557" gradientTransform="matrix(-1 0 0 1 1104.8906 0)">
			<stop  offset="0.3427" style="stop-color:#45612D"/>
			<stop  offset="0.3917" style="stop-color:#48642E"/>
			<stop  offset="0.4299" style="stop-color:#506E2F"/>
			<stop  offset="0.4645" style="stop-color:#5E7E32"/>
			<stop  offset="0.4969" style="stop-color:#719636"/>
			<stop  offset="0.5275" style="stop-color:#8BB43B"/>
			<stop  offset="0.5382" style="stop-color:#95C03D"/>
			<stop  offset="0.5761" style="stop-color:#92BC3D"/>
			<stop  offset="0.6174" style="stop-color:#8AAF3B"/>
			<stop  offset="0.66" style="stop-color:#7D9939"/>
			<stop  offset="0.6968" style="stop-color:#6E8036"/>
			<stop  offset="0.7536" style="stop-color:#566E31"/>
			<stop  offset="0.7892" style="stop-color:#45612D"/>
		</linearGradient>
		<path fill="url(#SVGID_13_)" d="M191.021,958.063c-3.841-26.524-12.539-57.731-32.129-72.442
			c-50.689-38.064-70.739-9.047-70.739,3.122c0,28.546,33.977,27.766,33.977,27.766s-76.866,12.166-98.589-6.553
			s-29.243-54.287,31.75-54.287c50.155,0,76.905-6.146,116.969,29.952c19.464,17.54,27.353,47.318,30.4,72.442H191.021z"/>
		<path fill="#7E993C" d="M191.018,958.063c-3.844-26.202-12.53-56.99-32.066-71.661c-50.686-38.063-70.74-9.049-70.74,3.116
			c0,28.549,33.977,27.771,33.977,27.771s-1.767,0.279-4.824,0.688c-9.962-0.902-33.618-5.732-33.618-31.338
			c0-13.821,22.404-46.784,79.043-3.546c20.279,15.479,30.059,46.703,34.778,74.971H191.018z"/>
	</g>
	<g>
		
			<linearGradient id="SVGID_14_" gradientUnits="userSpaceOnUse" x1="844.0313" y1="859.2617" x2="930.7556" y2="1100.0093" gradientTransform="matrix(-1 0 0 1 1104.8906 0)">
			<stop  offset="0.025" style="stop-color:#3B491F"/>
			<stop  offset="0.2779" style="stop-color:#6E8036"/>
			<stop  offset="0.4978" style="stop-color:#7D9839"/>
			<stop  offset="0.8086" style="stop-color:#95C03D"/>
		</linearGradient>
		<path fill="url(#SVGID_14_)" d="M145.397,958.063c12.554-9.57,21.037-21.323,26.026-34.537c8.64-22.882,12.786-58.386,0.836-80.96
			c30.569,0.109,46.254-18.083,95.247,6.552c41.157,20.695,50.465,77.306,52.376,108.945H145.397z"/>
		
			<linearGradient id="SVGID_15_" gradientUnits="userSpaceOnUse" x1="868.582" y1="766.0049" x2="874.0651" y2="923.0206" gradientTransform="matrix(-1 0 0 1 1104.8906 0)">
			<stop  offset="0.3427" style="stop-color:#45612D"/>
			<stop  offset="0.3917" style="stop-color:#48642E"/>
			<stop  offset="0.4299" style="stop-color:#506E2F"/>
			<stop  offset="0.4645" style="stop-color:#5E7E32"/>
			<stop  offset="0.4969" style="stop-color:#719636"/>
			<stop  offset="0.5275" style="stop-color:#8BB43B"/>
			<stop  offset="0.5382" style="stop-color:#95C03D"/>
			<stop  offset="0.5761" style="stop-color:#92BC3D"/>
			<stop  offset="0.6174" style="stop-color:#8AAF3B"/>
			<stop  offset="0.66" style="stop-color:#7D9939"/>
			<stop  offset="0.6968" style="stop-color:#6E8036"/>
			<stop  offset="0.7536" style="stop-color:#566E31"/>
			<stop  offset="0.7892" style="stop-color:#45612D"/>
		</linearGradient>
		<path fill="url(#SVGID_15_)" d="M318.486,958.063c-2.142-28.536-9.504-73.499-34.273-92.1
			c-50.686-38.062-70.734-9.048-70.734,3.122c0,28.547,33.972,27.769,33.972,27.769s-76.864,12.167-98.587-6.554
			c-21.722-18.718-29.241-54.287,31.749-54.287c50.158,0,76.908-6.146,116.969,29.95c24.923,22.457,30.869,64.974,31.976,92.1
			H318.486z"/>
		<path fill="#7E993C" d="M318.499,958.063c-2.12-28.223-9.455-72.719-34.223-91.317c-50.689-38.061-70.738-9.046-70.738,3.119
			c0,28.547,33.973,27.768,33.973,27.768s-1.763,0.28-4.826,0.687c-9.959-0.9-33.615-5.731-33.615-31.339
			c0-13.819,22.406-46.779,79.045-3.543c25.161,19.21,34.169,62.668,37.376,94.626H318.499z"/>
	</g>
	<g>
		
			<linearGradient id="SVGID_16_" gradientUnits="userSpaceOnUse" x1="673.8184" y1="835.3066" x2="762.5438" y2="1081.6094" gradientTransform="matrix(-1 0 0 1 1104.8906 0)">
			<stop  offset="0.025" style="stop-color:#3B491F"/>
			<stop  offset="0.2779" style="stop-color:#6E8036"/>
			<stop  offset="0.4978" style="stop-color:#7D9839"/>
			<stop  offset="0.8086" style="stop-color:#95C03D"/>
		</linearGradient>
		<path fill="url(#SVGID_16_)" d="M274.678,958.063c42.14-8.975,65.645-29.512,75.541-55.714
			c8.643-22.887,12.787-58.391,0.836-80.964c30.568,0.108,46.25-18.085,95.242,6.551c55.094,27.703,53.127,119.763,52.726,130.127
			H274.678z"/>
		
			<linearGradient id="SVGID_17_" gradientUnits="userSpaceOnUse" x1="689.4111" y1="744.7129" x2="694.9038" y2="902.0039" gradientTransform="matrix(-1 0 0 1 1104.8906 0)">
			<stop  offset="0.3427" style="stop-color:#45612D"/>
			<stop  offset="0.3917" style="stop-color:#48642E"/>
			<stop  offset="0.4299" style="stop-color:#506E2F"/>
			<stop  offset="0.4645" style="stop-color:#5E7E32"/>
			<stop  offset="0.4969" style="stop-color:#719636"/>
			<stop  offset="0.5275" style="stop-color:#8BB43B"/>
			<stop  offset="0.5382" style="stop-color:#95C03D"/>
			<stop  offset="0.5761" style="stop-color:#92BC3D"/>
			<stop  offset="0.6174" style="stop-color:#8AAF3B"/>
			<stop  offset="0.66" style="stop-color:#7D9939"/>
			<stop  offset="0.6968" style="stop-color:#6E8036"/>
			<stop  offset="0.7536" style="stop-color:#566E31"/>
			<stop  offset="0.7892" style="stop-color:#45612D"/>
		</linearGradient>
		<path fill="url(#SVGID_17_)" d="M498.133,958.063c-0.041-17.596-2.278-88.611-35.124-113.281
			c-50.687-38.063-70.739-9.047-70.739,3.121c0,28.549,33.978,27.769,33.978,27.769s-76.867,12.169-98.589-6.553
			c-21.721-18.72-29.241-54.287,31.75-54.287c50.157,0,76.906-6.147,116.966,29.95c33.561,30.243,32.717,96.872,31.97,113.281
			H498.133z"/>
		<path fill="#7E993C" d="M498.133,958.063c-0.008-17.013-2.079-87.729-35.063-112.498c-50.687-38.064-70.737-9.048-70.737,3.119
			c0,28.55,33.975,27.768,33.975,27.768s-1.769,0.28-4.824,0.688c-9.963-0.903-33.619-5.733-33.619-31.34
			c0-13.821,22.404-46.78,79.045-3.545c31.426,23.991,37.661,85.818,38.86,115.808H498.133z"/>
	</g>
	<g>
		
			<linearGradient id="SVGID_18_" gradientUnits="userSpaceOnUse" x1="534.1685" y1="878.626" x2="620.7093" y2="1118.8643" gradientTransform="matrix(-1 0 0 1 1104.8906 0)">
			<stop  offset="0.025" style="stop-color:#3B491F"/>
			<stop  offset="0.2779" style="stop-color:#6E8036"/>
			<stop  offset="0.4978" style="stop-color:#7D9839"/>
			<stop  offset="0.8086" style="stop-color:#95C03D"/>
		</linearGradient>
		<path fill="url(#SVGID_18_)" d="M478.76,958.063c2.725-4.33,5.016-8.855,6.806-13.596c8.643-22.884,12.788-58.39,0.837-80.963
			c30.572,0.107,46.252-18.085,95.247,6.55c33.118,16.653,45.608,56.566,50.223,88.009H478.76z"/>
		
			<linearGradient id="SVGID_19_" gradientUnits="userSpaceOnUse" x1="555.6738" y1="787.0547" x2="561.1447" y2="943.7216" gradientTransform="matrix(-1 0 0 1 1104.8906 0)">
			<stop  offset="0.3427" style="stop-color:#45612D"/>
			<stop  offset="0.3917" style="stop-color:#48642E"/>
			<stop  offset="0.4299" style="stop-color:#506E2F"/>
			<stop  offset="0.4645" style="stop-color:#5E7E32"/>
			<stop  offset="0.4969" style="stop-color:#719636"/>
			<stop  offset="0.5275" style="stop-color:#8BB43B"/>
			<stop  offset="0.5382" style="stop-color:#95C03D"/>
			<stop  offset="0.5761" style="stop-color:#92BC3D"/>
			<stop  offset="0.6174" style="stop-color:#8AAF3B"/>
			<stop  offset="0.66" style="stop-color:#7D9939"/>
			<stop  offset="0.6968" style="stop-color:#6E8036"/>
			<stop  offset="0.7536" style="stop-color:#566E31"/>
			<stop  offset="0.7892" style="stop-color:#45612D"/>
		</linearGradient>
		<path fill="url(#SVGID_19_)" d="M630.299,958.063c-3.937-26.241-12.667-56.683-31.942-71.159
			c-50.686-38.063-70.736-9.05-70.736,3.119c0,28.547,33.975,27.768,33.975,27.768s-76.865,12.168-98.587-6.552
			c-21.722-18.718-29.242-54.288,31.75-54.288c50.157,0,76.905-6.145,116.968,29.953c19.134,17.242,27.08,46.309,30.242,71.159
			H630.299z"/>
		<path fill="#7E993C" d="M630.291,958.063c-3.934-25.919-12.655-55.946-31.872-70.378c-50.688-38.064-70.738-9.049-70.738,3.12
			c0,28.548,33.975,27.765,33.975,27.765s-1.769,0.282-4.826,0.689c-9.961-0.902-33.617-5.736-33.617-31.339
			c0-13.821,22.405-46.782,79.045-3.544c19.971,15.243,29.76,45.764,34.56,73.687H630.291z"/>
	</g>
	<g>
		
			<linearGradient id="SVGID_20_" gradientUnits="userSpaceOnUse" x1="404.8037" y1="860.4512" x2="491.4803" y2="1101.0663" gradientTransform="matrix(-1 0 0 1 1104.8906 0)">
			<stop  offset="0.025" style="stop-color:#3B491F"/>
			<stop  offset="0.2779" style="stop-color:#6E8036"/>
			<stop  offset="0.4978" style="stop-color:#7D9839"/>
			<stop  offset="0.8086" style="stop-color:#95C03D"/>
		</linearGradient>
		<path fill="url(#SVGID_20_)" d="M586.526,958.063c11.647-9.331,19.599-20.629,24.365-33.254
			c8.643-22.882,12.787-58.386,0.835-80.963c30.569,0.112,46.253-18.081,95.247,6.553c40.61,20.419,50.208,75.8,52.294,107.664
			H586.526z"/>
		
			<linearGradient id="SVGID_21_" gradientUnits="userSpaceOnUse" x1="429.1675" y1="767.291" x2="434.65" y2="924.2891" gradientTransform="matrix(-1 0 0 1 1104.8906 0)">
			<stop  offset="0.3427" style="stop-color:#45612D"/>
			<stop  offset="0.3917" style="stop-color:#48642E"/>
			<stop  offset="0.4299" style="stop-color:#506E2F"/>
			<stop  offset="0.4645" style="stop-color:#5E7E32"/>
			<stop  offset="0.4969" style="stop-color:#719636"/>
			<stop  offset="0.5275" style="stop-color:#8BB43B"/>
			<stop  offset="0.5382" style="stop-color:#95C03D"/>
			<stop  offset="0.5761" style="stop-color:#92BC3D"/>
			<stop  offset="0.6174" style="stop-color:#8AAF3B"/>
			<stop  offset="0.66" style="stop-color:#7D9939"/>
			<stop  offset="0.6968" style="stop-color:#6E8036"/>
			<stop  offset="0.7536" style="stop-color:#566E31"/>
			<stop  offset="0.7892" style="stop-color:#45612D"/>
		</linearGradient>
		<path fill="url(#SVGID_21_)" d="M757.849,958.063c-2.259-28.583-9.765-72.487-34.168-90.814
			c-50.683-38.063-70.736-9.048-70.736,3.12c0,28.549,33.976,27.766,33.976,27.766s-76.865,12.169-98.588-6.552
			c-21.722-18.722-29.24-54.288,31.747-54.288c50.158,0,76.911-6.146,116.971,29.954c24.541,22.108,30.68,63.65,31.915,90.814
			H757.849z"/>
		<path fill="#7E993C" d="M757.861,958.063c-2.242-28.271-9.721-71.713-34.12-90.036c-50.688-38.063-70.738-9.048-70.738,3.123
			c0,28.547,33.977,27.768,33.977,27.768s-1.766,0.276-4.825,0.686c-9.96-0.9-33.621-5.732-33.621-31.337
			c0-13.823,22.408-46.782,79.047-3.548c24.832,18.958,33.925,61.515,37.241,93.345H757.861z"/>
	</g>
</g>
</svg>
