<?xml version="1.0" encoding="utf-8"?>
<!-- Generator: Adobe Illustrator 16.0.0, SVG Export Plug-In . SVG Version: 6.00 Build 0)  -->
<!DOCTYPE svg PUBLIC "-//W3C//DTD SVG 1.1//EN" "http://www.w3.org/Graphics/SVG/1.1/DTD/svg11.dtd">
<svg version="1.1" id="Layer_1" xmlns="http://www.w3.org/2000/svg" xmlns:xlink="http://www.w3.org/1999/xlink" x="0px" y="0px"
	 width="380px" height="570px" viewBox="0 0 380 570" enable-background="new 0 0 380 570" xml:space="preserve">
<linearGradient id="SVGID_1_" gradientUnits="userSpaceOnUse" x1="190.0454" y1="625.2939" x2="190.0454" y2="-68.4028">
	<stop  offset="0.0299" style="stop-color:#6A431A"/>
	<stop  offset="0.1099" style="stop-color:#846439"/>
	<stop  offset="0.151" style="stop-color:#CAA12C"/>
	<stop  offset="0.1559" style="stop-color:#C7A63B"/>
	<stop  offset="0.1707" style="stop-color:#C0B263"/>
	<stop  offset="0.1871" style="stop-color:#B9BE86"/>
	<stop  offset="0.2047" style="stop-color:#B3C7A4"/>
	<stop  offset="0.2241" style="stop-color:#AFCFBC"/>
	<stop  offset="0.246" style="stop-color:#ABD5CE"/>
	<stop  offset="0.2719" style="stop-color:#A9D9DB"/>
	<stop  offset="0.3054" style="stop-color:#A7DBE3"/>
	<stop  offset="0.3747" style="stop-color:#A7DCE5"/>
	<stop  offset="0.4209" style="stop-color:#9CD3E4"/>
	<stop  offset="0.5393" style="stop-color:#87C1E2"/>
	<stop  offset="0.6534" style="stop-color:#79B6E1"/>
	<stop  offset="0.7577" style="stop-color:#75B2E1"/>
	<stop  offset="0.7966" style="stop-color:#6FBBDB"/>
	<stop  offset="0.8645" style="stop-color:#69C5D6"/>
	<stop  offset="0.9548" style="stop-color:#67C8D4"/>
</linearGradient>
<polygon fill="url(#SVGID_1_)" points="379.914,570.034 0,569.998 0,0 380.091,0 "/>
<g>
	<path opacity="0.4" fill="#FFFFFF" d="M364.07,471.395c0,0-28.563,0-57.569,0c-0.689,0.004-1.377,0.005-2.066,0.007
		c-4.544-0.31-8.664,2.311-13.058,2.824c-0.626,0.072-1.258,0.104-1.9,0.078c-0.65-0.073-1.29-0.188-1.919-0.329
		c-6.137-2.493-12.485-3.144-18.725-1.225c-0.908,0.063-1.822,0.116-2.732,0.152c-1.527,0.019-3.039-0.024-4.544-0.104
		c-0.756-0.042-1.503-0.093-2.256-0.146c-0.79-0.013-1.574-0.068-2.358-0.14c-8.965-0.16-18.73-2.331-27.273,1.142
		c-1.953,0.866-4.151-0.436-5.789-1.533c-0.451-0.278-0.885-0.566-1.291-0.854c0.701,0.136,1.394,0.205,2.065,0.227
		c4.525,0.424,8.188-3.48,12.582-1.746c2.928,1.085,3.661-2.604,6.735-2.256c0,0,12.083,0,14.278-3.577
		c2.198-3.58,5.493-9.763,10.62-8.464c5.125,1.305,6.957-4.878,13.549-6.506c6.589-1.627,16.475,1.302,16.475,1.302
		s6.594,3.58,9.521-0.65c2.93-4.23,8.055-7.811,11.351-6.835c3.294,0.977,11.718,2.604,12.081,4.231
		c0.368,1.627,5.114,9.744,2.925,9.754c-2.19,0.009-1.967,2.771-0.248,2.203c1.722-0.568,3.962-5.616,7.234-4.719
		c3.274,0.896,7.685-1.335,9.69,3.523c2.003,4.856,0.539,6.811,0.539,6.811s2.564-1.627,7.689,0.323
		C364.803,466.84,364.07,471.395,364.07,471.395z"/>
	<path opacity="0.4" fill="#FFFFFF" d="M338.746,470.476c0,0-18.27,0-36.825,0c-0.438,0.003-0.88,0.003-1.324,0.003
		c-2.906-0.196-5.539,1.479-8.351,1.809c-0.402,0.047-0.806,0.065-1.216,0.05c-0.416-0.048-0.824-0.121-1.229-0.211
		c-3.926-1.595-7.984-2.011-11.976-0.784c-0.582,0.041-1.166,0.073-1.75,0.099c-0.975,0.012-1.943-0.016-2.904-0.068
		c-0.484-0.025-0.963-0.058-1.447-0.091c-0.501-0.011-1.006-0.045-1.506-0.092c-5.733-0.104-11.982-1.49-17.445,0.729
		c-1.251,0.557-2.658-0.276-3.704-0.979c-0.29-0.177-0.566-0.362-0.828-0.548c0.451,0.087,0.892,0.134,1.323,0.148
		c2.894,0.268,5.237-2.229,8.047-1.119c1.876,0.694,2.343-1.665,4.31-1.442c0,0,7.731,0,9.135-2.29
		c1.408-2.289,3.515-6.244,6.794-5.412c3.275,0.833,4.449-3.124,8.664-4.163c4.22-1.039,10.54,0.833,10.54,0.833
		s4.218,2.291,6.092-0.417c1.874-2.705,5.151-4.996,7.261-4.37c2.108,0.624,7.497,1.665,7.731,2.706
		c0.231,1.04,3.271,6.232,1.869,6.239c-1.4,0.005-1.259,1.772-0.158,1.409c1.098-0.363,2.532-3.595,4.625-3.018
		c2.093,0.572,4.918-0.856,6.199,2.252c1.282,3.108,0.346,4.357,0.346,4.357s1.643-1.041,4.917,0.207
		C339.218,467.563,338.746,470.476,338.746,470.476z"/>
</g>
<g>
	<path opacity="0.4" fill="#FFFFFF" d="M25.219,439.238c0,0,6.105-0.766,15.511-1.945c1.176-0.146,2.404-0.301,3.679-0.46
		c7.456-0.722,14.509-2.852,21.578-4.695c1.415-0.367,2.829-0.724,4.248-1.056c18.765-2.815,36.667-11.061,56.387-8.002
		c1.25-0.018,2.511-0.054,3.773-0.1c1.683-0.061,3.368-0.138,5.054-0.225c11.15-1.251,22.638-0.847,34.125-0.442
		c0.509-0.063,0.293-1.421,0.731-1.938c-10.686-1.889-21.376-0.548-32.284-2.663c-1.576-0.246-3.138-0.534-4.681-0.877
		c-4.625-1.026-9.073-2.545-13.191-4.936c-1.162-0.776-2.798-0.455-4.547-0.253c-1.745,0.201-3.602,0.287-5.226-0.955
		c-1.294-0.885-2.585-1.896-4.115-2.208c-1.28-0.627-2.712-1.141-4.394-1.338c-6.723-0.783-15.971,3.308-15.971,3.308
		s-5.912,4.323-9.447,0.534c-3.534-3.793-9.124-6.676-12.207-5.313c-3.083,1.366-11.095,3.999-11.201,5.64
		c-0.053,0.823-0.927,3.371-1.521,5.683c-0.593,2.31-0.904,4.384,0.173,4.253c2.152-0.259,2.358,2.486,0.587,2.138
		c-0.888-0.176-2.081-1.434-3.435-2.487c-1.352-1.053-2.868-1.902-4.404-1.261c-3.072,1.285-7.751-0.364-8.961,4.653
		c-1.21,5.015,0.531,6.752,0.531,6.752s-2.769-1.282-7.497,1.265C23.79,434.858,25.219,439.238,25.219,439.238z"/>
	<path opacity="0.4" fill="#FFFFFF" d="M32.954,437.089c0,0,2.58-0.323,6.864-0.86c1.428-0.179,3.046-0.381,4.822-0.605
		c7.085-0.845,13.469-2.278,20.284-4.146c1.363-0.373,2.742-0.765,4.15-1.171c1.151-0.375,2.321-0.639,3.503-0.824
		c1.23-0.215,2.468-0.351,3.749-0.468c8.091-0.173,15.513-2.487,23.515-4.413c9.529-2.119,19.131-3.784,29.004-3.3
		c1.998,0.135,4.003,0.347,5.984,0.529c1.774,0.16,3.527,0.299,5.275,0.336c3.442-0.279,7.149,0.178,10.498-1.626
		c-3.707-0.458-6.762-0.073-10.394-0.436c-1.583-0.033-3.142-0.053-4.7-0.084c-2.321-0.052-4.635-0.129-6.947-0.318
		c-1.157-0.097-2.313-0.22-3.467-0.381c-11.86-1.938-22.761-5.186-34.523-6.881c-1.469-0.082-2.933-0.051-4.39,0.144
		c-2.913,0.385-5.799,1.406-8.636,3.412c-1.5,0.473-3.34,0.577-4.711-0.899c-1.373-1.476-3.148-2.775-4.88-3.572
		c-1.733-0.798-3.42-1.093-4.62-0.562c-2.399,1.06-8.638,3.11-8.72,4.39c-0.042,0.639-0.723,2.624-1.184,4.422
		c-1.719,2.556,0.898,2.688,1.257,4.95c-1.528,0.193-1.815-1.618-3.337-1.91c-1.055-0.819-2.234-1.48-3.43-0.981
		c-2.392,0.999-6.034-0.284-6.977,3.621c-0.942,3.906,0.415,5.256,0.415,5.256s-2.157-0.999-5.837,0.984
		S32.954,437.089,32.954,437.089z"/>
</g>
<path opacity="0.6" fill="#799A3D" d="M365.098,534.872c-10.067-1.316-19.904-3.337-29.567-5.557
	c-8.966-2.061-17.919-4.182-27.335-5.183c-6.853-0.456-13.8-0.28-20.668-0.034c-6.976,0.252-13.929,0.681-20.857,1.247
	c-11.826,1.084-23.508,2.704-35.359,3.678c-10.988,0.902-22.108,1.221-33.167,0.709c-12.113-0.558-24.223-1.82-35.915-3.945
	c-5.321-0.968-10.553-2.095-15.947-2.9c-4.245-0.633-8.523-1.148-12.831-1.561c-16.408-1.286-32.979-1.002-49.359,0.324
	c-27.993,2.58-55.135,7.982-81.593,14.297c0.081,15.299,0.176,34.237,0.176,34.04c0-0.337,383.566,0.02,383.566,0.02l0.078-33.427
	C379.505,536.345,371.803,535.748,365.098,534.872z"/>
<path opacity="0.2" fill="#8FB83E" d="M28.647,534.592c5.565,0.159,11.005-1.044,15.9-2.246c8.975-1.655,16.998-4.888,25.293-7.595
	c1.658-0.541,3.329-1.061,5.02-1.544c9.571-2.75,19.679-4.174,29.797-4.428c2.024-0.052,4.048-0.057,6.068-0.014
	c14.94,0.519,29.417,2.932,42.685,7.11c1.659,0.521,3.303,1.073,4.945,1.663c5.857,2.699,12.929,3.604,20.543,3.604
	c-2.175-2.708-4.352-5.715-8.226-8.047c-1.124-0.723-2.347-1.403-3.651-2.045c-5.214-2.574-11.7-4.563-17.872-6.286
	c-1.596-0.521-3.19-1.048-4.788-1.568c-7.989-2.604-16.086-5.09-25.213-6.396c-1.669-0.262-3.354-0.492-5.055-0.687
	c-5.104-0.584-10.354-0.851-15.756-0.728c-1.914-0.019-3.817-0.008-5.719,0.033c-1.901,0.042-3.802,0.112-5.698,0.214
	c-1.896,0.1-3.786,0.23-5.667,0.394c-1.7,0.263-3.46,0.525-5.265,0.793c-1.81,0.271-3.662,0.545-5.557,0.84
	c-19.739,3.055-47.894,9.374-50.354,21.756c-0.223,1.126-0.232,2.303-0.001,3.529c0.564,0.902,2.812,0.601,4.175,1.305
	C25.546,534.43,27,534.548,28.647,534.592z"/>
<path opacity="0.2" fill="#8FB83E" d="M233.782,540.818c5.567,0.159,11.005-1.042,15.901-2.246
	c8.975-1.654,16.997-4.887,25.293-7.594c1.656-0.54,3.329-1.061,5.019-1.544c9.572-2.75,19.68-4.173,29.797-4.429
	c2.023-0.05,4.049-0.053,6.068-0.013c14.942,0.518,29.417,2.932,42.687,7.109c1.658,0.523,3.302,1.073,4.943,1.664
	c5.858,2.7,12.93,3.603,20.544,3.603c-2.175-2.707-4.352-5.714-8.226-8.045c-1.124-0.723-2.35-1.403-3.651-2.045
	c-5.214-2.574-11.7-4.563-17.872-6.286c-1.597-0.523-3.189-1.048-4.788-1.569c-7.989-2.604-16.085-5.089-25.213-6.395
	c-1.669-0.263-3.353-0.492-5.055-0.688c-5.102-0.584-10.353-0.851-15.756-0.728c-1.913-0.019-3.814-0.009-5.717,0.033
	c-1.903,0.041-3.804,0.111-5.698,0.214c-1.896,0.1-3.787,0.231-5.669,0.393c-1.698,0.263-3.458,0.526-5.264,0.794
	c-1.811,0.271-3.662,0.546-5.559,0.841c-19.738,3.054-47.893,9.374-50.353,21.756c-0.222,1.125-0.231,2.301-0.002,3.529
	c0.565,0.901,2.813,0.6,4.176,1.304C230.682,540.657,232.135,540.775,233.782,540.818z"/>
<path opacity="0.2" fill="#8FB83E" d="M208.873,522.408c12.285,0.979,24.454-1.596,36.647-3.572c1.108-0.179,2.218-0.353,3.329-0.52
	c6.325-1.449,12.684-2.233,18.941-2.247c1.253-0.003,2.5,0.025,3.744,0.086c1.201,0.13,2.405,0.246,3.61,0.356
	c1.206,0.109,2.415,0.21,3.622,0.312c7.116,1.183,15.571,0.614,23.308,1.163c1.107,0.08,2.2,0.182,3.276,0.316
	c3.008,0.891,6.388,1.667,9.8,2.57c0.682,0.18,1.369,0.365,2.051,0.557c2.924,0.982,5.852,1.722,8.773,2.423
	c0.973,0.235,1.945,0.465,2.918,0.698c0.941,0.309,1.886,0.597,2.835,0.867c0.947,0.271,1.899,0.521,2.854,0.756
	c9.663,2.007,22.393,4.908,27.941,0.557c4.896-3.771-9.792-6.091-15.422-9.774c-0.871-0.432-1.741-0.865-2.61-1.301
	c-7.828-3.918-15.611-7.922-23.771-11.115c-5.567-1.982-11.291-3.475-17.217-4.322c-3.692-0.365-7.393-0.502-11.091-0.479
	c-1.724,0.846-3.616,1.2-5.751,1.396c-0.165,0.016-0.332,0.035-0.498,0.053c-2.891,0.408-5.753,0.96-8.591,1.613
	c-0.968,0.227-1.933,0.465-2.92,0.718c-1.137,0.375-2.28,0.735-3.428,1.087c-1.15,0.354-2.306,0.697-3.469,1.036
	c-1.158,0.347-2.322,0.683-3.487,1.011c-1.169,0.329-2.34,0.649-3.517,0.964c-17.365,5.771-36.622,7.222-53.27,14.763
	c0.327,0,0.327,0,0.639-0.122C208.346,522.304,208.595,522.354,208.873,522.408z"/>
<path fill="#8FB83E" d="M290.733,538.723c-0.917-0.344-1.833-0.688-2.747-1.031C288.898,538.041,289.815,538.382,290.733,538.723z"
	/>
<g>
	<g>
		<g>
			<linearGradient id="SVGID_2_" gradientUnits="userSpaceOnUse" x1="347.6602" y1="540.8984" x2="376.406" y2="620.6973">
				<stop  offset="0.025" style="stop-color:#3B491F"/>
				<stop  offset="0.2779" style="stop-color:#6E8036"/>
				<stop  offset="0.4978" style="stop-color:#7D9839"/>
				<stop  offset="0.8086" style="stop-color:#95C03D"/>
			</linearGradient>
			<path fill="url(#SVGID_2_)" d="M372.52,569.864c-0.782-1.677-1.428-3.443-1.922-5.296c-2.188-8.146-3.238-20.784-0.213-28.82
				c-7.738,0.039-11.709-6.438-24.109,2.333c-8.5,6.007-11.631,20.523-12.762,31.783H372.52z"/>
			<linearGradient id="SVGID_3_" gradientUnits="userSpaceOnUse" x1="353.9717" y1="508.2744" x2="355.9377" y2="564.5751">
				<stop  offset="0.3427" style="stop-color:#45612D"/>
				<stop  offset="0.3917" style="stop-color:#48642E"/>
				<stop  offset="0.4299" style="stop-color:#506E2F"/>
				<stop  offset="0.4645" style="stop-color:#5E7E32"/>
				<stop  offset="0.4969" style="stop-color:#719636"/>
				<stop  offset="0.5275" style="stop-color:#8BB43B"/>
				<stop  offset="0.5382" style="stop-color:#95C03D"/>
				<stop  offset="0.5761" style="stop-color:#92BC3D"/>
				<stop  offset="0.6174" style="stop-color:#8AAF3B"/>
				<stop  offset="0.66" style="stop-color:#7D9939"/>
				<stop  offset="0.6968" style="stop-color:#6E8036"/>
				<stop  offset="0.7536" style="stop-color:#566E31"/>
				<stop  offset="0.7892" style="stop-color:#45612D"/>
			</linearGradient>
			<path fill="url(#SVGID_3_)" d="M333.911,569.864c0.973-9.442,3.174-20.55,8.134-25.787c12.831-13.549,17.907-3.221,17.907,1.111
				c0,10.161-8.603,9.884-8.603,9.884s19.459,4.331,24.957-2.333c5.499-6.663,7.403-19.324-8.035-19.324
				c-12.698,0-19.469-2.188-29.611,10.662c-4.926,6.243-6.923,16.844-7.692,25.787H333.911z"/>
			<path fill="#7E993C" d="M333.913,569.864c0.971-9.326,3.17-20.287,8.117-25.509c12.829-13.55,17.906-3.222,17.906,1.109
				c0,10.163-8.603,9.885-8.603,9.885s0.45,0.1,1.223,0.245c2.522-0.321,8.511-2.041,8.511-11.155c0-4.92-5.672-16.653-20.01-1.263
				c-5.133,5.512-7.608,16.626-8.803,26.688H333.913z"/>
		</g>
		<g>
			<linearGradient id="SVGID_4_" gradientUnits="userSpaceOnUse" x1="314.6006" y1="534.3877" x2="343.3812" y2="614.2831">
				<stop  offset="0.025" style="stop-color:#3B491F"/>
				<stop  offset="0.2779" style="stop-color:#6E8036"/>
				<stop  offset="0.4978" style="stop-color:#7D9839"/>
				<stop  offset="0.8086" style="stop-color:#95C03D"/>
			</linearGradient>
			<path fill="url(#SVGID_4_)" d="M345.461,569.864c-3.177-3.407-5.324-7.591-6.588-12.294c-2.187-8.145-3.237-20.784-0.213-28.818
				c-7.738,0.038-11.707-6.438-24.11,2.332c-10.416,7.365-12.773,27.519-13.258,38.78H345.461z"/>
			<linearGradient id="SVGID_5_" gradientUnits="userSpaceOnUse" x1="321.9258" y1="501.2715" x2="323.8932" y2="557.6123">
				<stop  offset="0.3427" style="stop-color:#45612D"/>
				<stop  offset="0.3917" style="stop-color:#48642E"/>
				<stop  offset="0.4299" style="stop-color:#506E2F"/>
				<stop  offset="0.4645" style="stop-color:#5E7E32"/>
				<stop  offset="0.4969" style="stop-color:#719636"/>
				<stop  offset="0.5275" style="stop-color:#8BB43B"/>
				<stop  offset="0.5382" style="stop-color:#95C03D"/>
				<stop  offset="0.5761" style="stop-color:#92BC3D"/>
				<stop  offset="0.6174" style="stop-color:#8AAF3B"/>
				<stop  offset="0.66" style="stop-color:#7D9939"/>
				<stop  offset="0.6968" style="stop-color:#6E8036"/>
				<stop  offset="0.7536" style="stop-color:#566E31"/>
				<stop  offset="0.7892" style="stop-color:#45612D"/>
			</linearGradient>
			<path fill="url(#SVGID_5_)" d="M301.646,569.864c0.541-10.156,2.406-26.163,8.676-32.784
				c12.831-13.549,17.905-3.221,17.905,1.111c0,10.161-8.602,9.885-8.602,9.885s19.458,4.331,24.958-2.333
				c5.498-6.662,7.402-19.324-8.037-19.324c-12.698,0-19.469-2.188-29.609,10.661c-6.309,7.994-7.813,23.129-8.095,32.784H301.646z"
				/>
			<path fill="#7E993C" d="M301.641,569.864c0.538-10.047,2.396-25.886,8.666-32.506c12.83-13.549,17.906-3.221,17.906,1.111
				c0,10.161-8.601,9.883-8.601,9.883s0.445,0.1,1.221,0.245c2.521-0.321,8.509-2.041,8.509-11.155
				c0-4.919-5.671-16.653-20.009-1.263c-6.368,6.839-8.648,22.309-9.46,33.685H301.641z"/>
		</g>
		<g>
			<linearGradient id="SVGID_6_" gradientUnits="userSpaceOnUse" x1="268.915" y1="527.043" x2="297.949" y2="607.6416">
				<stop  offset="0.025" style="stop-color:#3B491F"/>
				<stop  offset="0.2779" style="stop-color:#6E8036"/>
				<stop  offset="0.4978" style="stop-color:#7D9839"/>
				<stop  offset="0.8086" style="stop-color:#95C03D"/>
			</linearGradient>
			<path fill="url(#SVGID_6_)" d="M312.734,569.864c-10.667-3.194-16.615-10.505-19.122-19.832
				c-2.187-8.147-3.234-20.785-0.21-28.82c-7.738,0.038-11.708-6.438-24.11,2.332c-13.946,9.86-13.447,42.632-13.346,46.32H312.734z
				"/>
			<linearGradient id="SVGID_7_" gradientUnits="userSpaceOnUse" x1="276.5361" y1="493.7178" x2="278.5048" y2="550.0937">
				<stop  offset="0.3427" style="stop-color:#45612D"/>
				<stop  offset="0.3917" style="stop-color:#48642E"/>
				<stop  offset="0.4299" style="stop-color:#506E2F"/>
				<stop  offset="0.4645" style="stop-color:#5E7E32"/>
				<stop  offset="0.4969" style="stop-color:#719636"/>
				<stop  offset="0.5275" style="stop-color:#8BB43B"/>
				<stop  offset="0.5382" style="stop-color:#95C03D"/>
				<stop  offset="0.5761" style="stop-color:#92BC3D"/>
				<stop  offset="0.6174" style="stop-color:#8AAF3B"/>
				<stop  offset="0.66" style="stop-color:#7D9939"/>
				<stop  offset="0.6968" style="stop-color:#6E8036"/>
				<stop  offset="0.7536" style="stop-color:#566E31"/>
				<stop  offset="0.7892" style="stop-color:#45612D"/>
			</linearGradient>
			<path fill="url(#SVGID_7_)" d="M256.171,569.864c0.01-6.264,0.575-31.543,8.89-40.324c12.832-13.549,17.908-3.221,17.908,1.11
				c0,10.163-8.603,9.886-8.603,9.886s19.458,4.331,24.957-2.333s7.403-19.324-8.036-19.324c-12.696,0-19.469-2.188-29.608,10.661
				c-8.496,10.765-8.283,34.482-8.092,40.324H256.171z"/>
			<path fill="#7E993C" d="M256.171,569.864c0.003-6.056,0.526-31.229,8.875-40.045c12.83-13.55,17.906-3.222,17.906,1.11
				c0,10.162-8.601,9.884-8.601,9.884s0.45,0.099,1.221,0.245c2.522-0.321,8.511-2.041,8.511-11.156
				c0-4.919-5.671-16.651-20.01-1.261c-7.955,8.539-9.532,30.548-9.835,41.223H256.171z"/>
		</g>
		<g>
			<linearGradient id="SVGID_8_" gradientUnits="userSpaceOnUse" x1="236.5088" y1="541.3213" x2="265.256" y2="621.1237">
				<stop  offset="0.025" style="stop-color:#3B491F"/>
				<stop  offset="0.2779" style="stop-color:#6E8036"/>
				<stop  offset="0.4978" style="stop-color:#7D9839"/>
				<stop  offset="0.8086" style="stop-color:#95C03D"/>
			</linearGradient>
			<path fill="url(#SVGID_8_)" d="M261.074,569.864c-0.689-1.541-1.27-3.153-1.723-4.839c-2.188-8.146-3.237-20.786-0.212-28.821
				c-7.737,0.04-11.706-6.437-24.109,2.332c-8.382,5.928-11.545,20.136-12.714,31.328H261.074z"/>
			<linearGradient id="SVGID_9_" gradientUnits="userSpaceOnUse" x1="242.7539" y1="508.7295" x2="244.7199" y2="565.0295">
				<stop  offset="0.3427" style="stop-color:#45612D"/>
				<stop  offset="0.3917" style="stop-color:#48642E"/>
				<stop  offset="0.4299" style="stop-color:#506E2F"/>
				<stop  offset="0.4645" style="stop-color:#5E7E32"/>
				<stop  offset="0.4969" style="stop-color:#719636"/>
				<stop  offset="0.5275" style="stop-color:#8BB43B"/>
				<stop  offset="0.5382" style="stop-color:#95C03D"/>
				<stop  offset="0.5761" style="stop-color:#92BC3D"/>
				<stop  offset="0.6174" style="stop-color:#8AAF3B"/>
				<stop  offset="0.66" style="stop-color:#7D9939"/>
				<stop  offset="0.6968" style="stop-color:#6E8036"/>
				<stop  offset="0.7536" style="stop-color:#566E31"/>
				<stop  offset="0.7892" style="stop-color:#45612D"/>
			</linearGradient>
			<path fill="url(#SVGID_9_)" d="M222.714,569.864c0.998-9.341,3.206-20.177,8.087-25.33c12.831-13.549,17.906-3.222,17.906,1.11
				c0,10.161-8.601,9.884-8.601,9.884s19.458,4.332,24.954-2.332c5.499-6.662,7.403-19.325-8.035-19.325
				c-12.695,0-19.468-2.187-29.609,10.663c-4.844,6.138-6.855,16.484-7.654,25.33H222.714z"/>
			<path fill="#7E993C" d="M222.718,569.864c0.996-9.226,3.202-19.915,8.066-25.052c12.832-13.55,17.908-3.221,17.908,1.111
				c0,10.161-8.601,9.882-8.601,9.882s0.447,0.101,1.219,0.246c2.522-0.321,8.511-2.042,8.511-11.156
				c0-4.919-5.671-16.652-20.01-1.262c-5.053,5.427-7.534,16.291-8.746,26.23H222.718z"/>
		</g>
		<g>
			<linearGradient id="SVGID_10_" gradientUnits="userSpaceOnUse" x1="203.4385" y1="534.8145" x2="232.2135" y2="614.6943">
				<stop  offset="0.025" style="stop-color:#3B491F"/>
				<stop  offset="0.2779" style="stop-color:#6E8036"/>
				<stop  offset="0.4978" style="stop-color:#7D9839"/>
				<stop  offset="0.8086" style="stop-color:#95C03D"/>
			</linearGradient>
			<path fill="url(#SVGID_10_)" d="M233.796,569.864c-2.949-3.321-4.961-7.343-6.168-11.837c-2.188-8.146-3.236-20.784-0.212-28.82
				c-7.737,0.04-11.708-6.437-24.11,2.332c-10.278,7.269-12.711,26.982-13.238,38.325H233.796z"/>
			<linearGradient id="SVGID_11_" gradientUnits="userSpaceOnUse" x1="210.6963" y1="501.7256" x2="212.6637" y2="558.0662">
				<stop  offset="0.3427" style="stop-color:#45612D"/>
				<stop  offset="0.3917" style="stop-color:#48642E"/>
				<stop  offset="0.4299" style="stop-color:#506E2F"/>
				<stop  offset="0.4645" style="stop-color:#5E7E32"/>
				<stop  offset="0.4969" style="stop-color:#719636"/>
				<stop  offset="0.5275" style="stop-color:#8BB43B"/>
				<stop  offset="0.5382" style="stop-color:#95C03D"/>
				<stop  offset="0.5761" style="stop-color:#92BC3D"/>
				<stop  offset="0.6174" style="stop-color:#8AAF3B"/>
				<stop  offset="0.66" style="stop-color:#7D9939"/>
				<stop  offset="0.6968" style="stop-color:#6E8036"/>
				<stop  offset="0.7536" style="stop-color:#566E31"/>
				<stop  offset="0.7892" style="stop-color:#45612D"/>
			</linearGradient>
			<path fill="url(#SVGID_11_)" d="M190.428,569.864c0.572-10.175,2.471-25.804,8.648-32.327
				c12.83-13.549,17.906-3.221,17.906,1.111c0,10.162-8.601,9.883-8.601,9.883s19.458,4.333,24.956-2.332s7.402-19.324-8.037-19.324
				c-12.696,0-19.469-2.188-29.608,10.662c-6.212,7.87-7.766,22.656-8.079,32.327H190.428z"/>
			<path fill="#7E993C" d="M190.424,569.864c0.568-10.063,2.462-25.527,8.639-32.049c12.829-13.549,17.905-3.222,17.905,1.11
				c0,10.162-8.602,9.885-8.602,9.885s0.449,0.099,1.222,0.244c2.521-0.32,8.511-2.041,8.511-11.154
				c0-4.922-5.673-16.654-20.011-1.264c-6.285,6.748-8.586,21.898-9.426,33.228H190.424z"/>
		</g>
	</g>
	<g>
		<g>
			
				<linearGradient id="SVGID_12_" gradientUnits="userSpaceOnUse" x1="-52.4033" y1="541.0605" x2="-23.6575" y2="620.8594" gradientTransform="matrix(-1 0 0 1 -15.1094 0)">
				<stop  offset="0.025" style="stop-color:#3B491F"/>
				<stop  offset="0.2779" style="stop-color:#6E8036"/>
				<stop  offset="0.4978" style="stop-color:#7D9839"/>
				<stop  offset="0.8086" style="stop-color:#95C03D"/>
			</linearGradient>
			<path fill="url(#SVGID_12_)" d="M12.436,570.026c0.78-1.677,1.425-3.442,1.923-5.296c2.188-8.147,3.236-20.786,0.211-28.821
				c7.739,0.04,11.708-6.437,24.11,2.334c8.5,6.007,11.631,20.524,12.759,31.783H12.436z"/>
			
				<linearGradient id="SVGID_13_" gradientUnits="userSpaceOnUse" x1="-45.7412" y1="508.293" x2="-43.7751" y2="564.5952" gradientTransform="matrix(-1 0 0 1 -15.1094 0)">
				<stop  offset="0.3427" style="stop-color:#45612D"/>
				<stop  offset="0.3917" style="stop-color:#48642E"/>
				<stop  offset="0.4299" style="stop-color:#506E2F"/>
				<stop  offset="0.4645" style="stop-color:#5E7E32"/>
				<stop  offset="0.4969" style="stop-color:#719636"/>
				<stop  offset="0.5275" style="stop-color:#8BB43B"/>
				<stop  offset="0.5382" style="stop-color:#95C03D"/>
				<stop  offset="0.5761" style="stop-color:#92BC3D"/>
				<stop  offset="0.6174" style="stop-color:#8AAF3B"/>
				<stop  offset="0.66" style="stop-color:#7D9939"/>
				<stop  offset="0.6968" style="stop-color:#6E8036"/>
				<stop  offset="0.7536" style="stop-color:#566E31"/>
				<stop  offset="0.7892" style="stop-color:#45612D"/>
			</linearGradient>
			<path fill="url(#SVGID_13_)" d="M50.691,569.885c-0.972-9.442-3.174-20.551-8.133-25.787c-12.831-13.55-17.906-3.22-17.906,1.11
				c0,10.162,8.601,9.885,8.601,9.885s-19.458,4.331-24.957-2.332c-5.499-6.664-7.402-19.325,8.037-19.325
				c12.696,0,19.468-2.188,29.609,10.662c4.927,6.243,6.923,16.844,7.695,25.787H50.691z"/>
			<path fill="#7E993C" d="M50.69,569.885c-0.973-9.327-3.171-20.287-8.117-25.509c-12.83-13.55-17.907-3.221-17.907,1.108
				c0,10.163,8.601,9.886,8.601,9.886s-0.447,0.099-1.221,0.244c-2.522-0.32-8.511-2.04-8.511-11.154
				c0-4.921,5.672-16.654,20.009-1.263c5.134,5.51,7.609,16.625,8.804,26.688H50.69z"/>
		</g>
		<g>
			
				<linearGradient id="SVGID_14_" gradientUnits="userSpaceOnUse" x1="-85.1108" y1="534.4092" x2="-56.3302" y2="614.3046" gradientTransform="matrix(-1 0 0 1 -15.1094 0)">
				<stop  offset="0.025" style="stop-color:#3B491F"/>
				<stop  offset="0.2779" style="stop-color:#6E8036"/>
				<stop  offset="0.4978" style="stop-color:#7D9839"/>
				<stop  offset="0.8086" style="stop-color:#95C03D"/>
			</linearGradient>
			<path fill="url(#SVGID_14_)" d="M39.143,569.885c3.178-3.406,5.326-7.59,6.588-12.294c2.187-8.146,3.236-20.783,0.211-28.819
				c7.738,0.039,11.708-6.437,24.111,2.333c10.418,7.366,12.774,27.518,13.258,38.78H39.143z"/>
			
				<linearGradient id="SVGID_15_" gradientUnits="userSpaceOnUse" x1="-77.7866" y1="501.2891" x2="-75.8191" y2="557.6312" gradientTransform="matrix(-1 0 0 1 -15.1094 0)">
				<stop  offset="0.3427" style="stop-color:#45612D"/>
				<stop  offset="0.3917" style="stop-color:#48642E"/>
				<stop  offset="0.4299" style="stop-color:#506E2F"/>
				<stop  offset="0.4645" style="stop-color:#5E7E32"/>
				<stop  offset="0.4969" style="stop-color:#719636"/>
				<stop  offset="0.5275" style="stop-color:#8BB43B"/>
				<stop  offset="0.5382" style="stop-color:#95C03D"/>
				<stop  offset="0.5761" style="stop-color:#92BC3D"/>
				<stop  offset="0.6174" style="stop-color:#8AAF3B"/>
				<stop  offset="0.66" style="stop-color:#7D9939"/>
				<stop  offset="0.6968" style="stop-color:#6E8036"/>
				<stop  offset="0.7536" style="stop-color:#566E31"/>
				<stop  offset="0.7892" style="stop-color:#45612D"/>
			</linearGradient>
			<path fill="url(#SVGID_15_)" d="M82.958,569.885c-0.542-10.157-2.406-26.163-8.676-32.785
				c-12.83-13.548-17.905-3.221-17.905,1.112c0,10.162,8.6,9.885,8.6,9.885s-19.457,4.331-24.956-2.333
				c-5.498-6.663-7.401-19.325,8.037-19.325c12.697,0,19.468-2.187,29.609,10.661c6.308,7.994,7.814,23.129,8.094,32.785H82.958z"/>
			<path fill="#7E993C" d="M82.96,569.885c-0.536-10.046-2.393-25.886-8.662-32.507c-12.832-13.547-17.907-3.219-17.907,1.111
				c0,10.161,8.6,9.885,8.6,9.885s-0.447,0.1-1.222,0.244c-2.521-0.32-8.509-2.04-8.509-11.156c0-4.92,5.672-16.651,20.009-1.261
				c6.369,6.838,8.649,22.307,9.461,33.684H82.96z"/>
		</g>
		<g>
			
				<linearGradient id="SVGID_16_" gradientUnits="userSpaceOnUse" x1="-130.7993" y1="527.0625" x2="-101.7649" y2="607.6624" gradientTransform="matrix(-1 0 0 1 -15.1094 0)">
				<stop  offset="0.025" style="stop-color:#3B491F"/>
				<stop  offset="0.2779" style="stop-color:#6E8036"/>
				<stop  offset="0.4978" style="stop-color:#7D9839"/>
				<stop  offset="0.8086" style="stop-color:#95C03D"/>
			</linearGradient>
			<path fill="url(#SVGID_16_)" d="M71.869,569.885c10.667-3.195,16.616-10.506,19.121-19.833c2.188-8.146,3.237-20.785,0.212-28.82
				c7.738,0.039,11.708-6.438,24.109,2.332c13.946,9.861,13.448,42.632,13.347,46.321H71.869z"/>
			
				<linearGradient id="SVGID_17_" gradientUnits="userSpaceOnUse" x1="-123.1777" y1="493.7383" x2="-121.209" y2="550.1153" gradientTransform="matrix(-1 0 0 1 -15.1094 0)">
				<stop  offset="0.3427" style="stop-color:#45612D"/>
				<stop  offset="0.3917" style="stop-color:#48642E"/>
				<stop  offset="0.4299" style="stop-color:#506E2F"/>
				<stop  offset="0.4645" style="stop-color:#5E7E32"/>
				<stop  offset="0.4969" style="stop-color:#719636"/>
				<stop  offset="0.5275" style="stop-color:#8BB43B"/>
				<stop  offset="0.5382" style="stop-color:#95C03D"/>
				<stop  offset="0.5761" style="stop-color:#92BC3D"/>
				<stop  offset="0.6174" style="stop-color:#8AAF3B"/>
				<stop  offset="0.66" style="stop-color:#7D9939"/>
				<stop  offset="0.6968" style="stop-color:#6E8036"/>
				<stop  offset="0.7536" style="stop-color:#566E31"/>
				<stop  offset="0.7892" style="stop-color:#45612D"/>
			</linearGradient>
			<path fill="url(#SVGID_17_)" d="M128.433,569.885c-0.01-6.263-0.576-31.543-8.891-40.325
				c-12.83-13.549-17.907-3.219-17.907,1.111c0,10.163,8.602,9.885,8.602,9.885s-19.458,4.332-24.957-2.333
				c-5.498-6.662-7.402-19.324,8.037-19.324c12.697,0,19.467-2.188,29.608,10.661c8.495,10.766,8.282,34.484,8.093,40.325H128.433z"
				/>
			<path fill="#7E993C" d="M128.433,569.885c-0.001-6.057-0.526-31.229-8.875-40.047c-12.831-13.548-17.906-3.219-17.906,1.111
				c0,10.163,8.6,9.885,8.6,9.885s-0.448,0.1-1.221,0.244c-2.522-0.32-8.51-2.04-8.51-11.156c0-4.919,5.671-16.651,20.009-1.261
				c7.955,8.541,9.533,30.549,9.836,41.224H128.433z"/>
		</g>
		<g>
			
				<linearGradient id="SVGID_18_" gradientUnits="userSpaceOnUse" x1="-163.2046" y1="541.3408" x2="-134.4567" y2="621.1452" gradientTransform="matrix(-1 0 0 1 -15.1094 0)">
				<stop  offset="0.025" style="stop-color:#3B491F"/>
				<stop  offset="0.2779" style="stop-color:#6E8036"/>
				<stop  offset="0.4978" style="stop-color:#7D9839"/>
				<stop  offset="0.8086" style="stop-color:#95C03D"/>
			</linearGradient>
			<path fill="url(#SVGID_18_)" d="M123.529,569.885c0.69-1.542,1.27-3.152,1.722-4.84c2.188-8.146,3.238-20.784,0.212-28.819
				c7.739,0.038,11.708-6.438,24.111,2.331c8.382,5.929,11.544,20.136,12.713,31.328H123.529z"/>
			
				<linearGradient id="SVGID_19_" gradientUnits="userSpaceOnUse" x1="-156.9585" y1="508.7461" x2="-154.9924" y2="565.0477" gradientTransform="matrix(-1 0 0 1 -15.1094 0)">
				<stop  offset="0.3427" style="stop-color:#45612D"/>
				<stop  offset="0.3917" style="stop-color:#48642E"/>
				<stop  offset="0.4299" style="stop-color:#506E2F"/>
				<stop  offset="0.4645" style="stop-color:#5E7E32"/>
				<stop  offset="0.4969" style="stop-color:#719636"/>
				<stop  offset="0.5275" style="stop-color:#8BB43B"/>
				<stop  offset="0.5382" style="stop-color:#95C03D"/>
				<stop  offset="0.5761" style="stop-color:#92BC3D"/>
				<stop  offset="0.6174" style="stop-color:#8AAF3B"/>
				<stop  offset="0.66" style="stop-color:#7D9939"/>
				<stop  offset="0.6968" style="stop-color:#6E8036"/>
				<stop  offset="0.7536" style="stop-color:#566E31"/>
				<stop  offset="0.7892" style="stop-color:#45612D"/>
			</linearGradient>
			<path fill="url(#SVGID_19_)" d="M161.889,569.885c-0.997-9.341-3.206-20.178-8.085-25.33
				c-12.831-13.55-17.906-3.223-17.906,1.109c0,10.162,8.601,9.885,8.601,9.885s-19.457,4.331-24.956-2.333
				c-5.498-6.662-7.402-19.324,8.037-19.324c12.697,0,19.467-2.188,29.609,10.663c4.843,6.138,6.855,16.484,7.655,25.33H161.889z"/>
			<path fill="#7E993C" d="M161.887,569.885c-0.996-9.227-3.203-19.915-8.068-25.053c-12.831-13.549-17.906-3.222-17.906,1.11
				c0,10.163,8.6,9.884,8.6,9.884s-0.448,0.101-1.222,0.245c-2.521-0.32-8.509-2.041-8.509-11.155c0-4.92,5.67-16.652,20.009-1.262
				c5.055,5.427,7.534,16.291,8.749,26.23H161.887z"/>
		</g>
		<g>
			
				<linearGradient id="SVGID_20_" gradientUnits="userSpaceOnUse" x1="-196.2739" y1="534.834" x2="-167.4995" y2="614.7122" gradientTransform="matrix(-1 0 0 1 -15.1094 0)">
				<stop  offset="0.025" style="stop-color:#3B491F"/>
				<stop  offset="0.2779" style="stop-color:#6E8036"/>
				<stop  offset="0.4978" style="stop-color:#7D9839"/>
				<stop  offset="0.8086" style="stop-color:#95C03D"/>
			</linearGradient>
			<path fill="url(#SVGID_20_)" d="M150.808,569.885c2.949-3.322,4.961-7.344,6.168-11.838c2.188-8.145,3.237-20.783,0.211-28.819
				c7.738,0.039,11.708-6.437,24.11,2.333c10.278,7.268,12.71,26.981,13.236,38.324H150.808z"/>
			
				<linearGradient id="SVGID_21_" gradientUnits="userSpaceOnUse" x1="-189.0161" y1="501.7461" x2="-187.0487" y2="558.0867" gradientTransform="matrix(-1 0 0 1 -15.1094 0)">
				<stop  offset="0.3427" style="stop-color:#45612D"/>
				<stop  offset="0.3917" style="stop-color:#48642E"/>
				<stop  offset="0.4299" style="stop-color:#506E2F"/>
				<stop  offset="0.4645" style="stop-color:#5E7E32"/>
				<stop  offset="0.4969" style="stop-color:#719636"/>
				<stop  offset="0.5275" style="stop-color:#8BB43B"/>
				<stop  offset="0.5382" style="stop-color:#95C03D"/>
				<stop  offset="0.5761" style="stop-color:#92BC3D"/>
				<stop  offset="0.6174" style="stop-color:#8AAF3B"/>
				<stop  offset="0.66" style="stop-color:#7D9939"/>
				<stop  offset="0.6968" style="stop-color:#6E8036"/>
				<stop  offset="0.7536" style="stop-color:#566E31"/>
				<stop  offset="0.7892" style="stop-color:#45612D"/>
			</linearGradient>
			<path fill="url(#SVGID_21_)" d="M194.177,569.885c-0.571-10.176-2.473-25.803-8.649-32.328
				c-12.831-13.548-17.906-3.219-17.906,1.111c0,10.163,8.601,9.884,8.601,9.884s-19.457,4.331-24.957-2.332
				c-5.499-6.665-7.402-19.325,8.037-19.325c12.696,0,19.47-2.188,29.609,10.662c6.21,7.871,7.766,22.658,8.078,32.328H194.177z"/>
			<path fill="#7E993C" d="M194.179,569.885c-0.566-10.063-2.46-25.527-8.637-32.05c-12.83-13.55-17.905-3.221-17.905,1.111
				c0,10.161,8.6,9.885,8.6,9.885s-0.446,0.098-1.222,0.244c-2.521-0.32-8.51-2.042-8.51-11.156c0-4.919,5.672-16.652,20.01-1.262
				c6.286,6.749,8.589,21.896,9.426,33.228H194.179z"/>
		</g>
	</g>
</g>
</svg>
