<?xml version="1.0" encoding="utf-8"?>
<!-- Generator: Adobe Illustrator 16.0.0, SVG Export Plug-In . SVG Version: 6.00 Build 0)  -->
<!DOCTYPE svg PUBLIC "-//W3C//DTD SVG 1.1//EN" "http://www.w3.org/Graphics/SVG/1.1/DTD/svg11.dtd">
<svg version="1.1" id="Layer_1" xmlns="http://www.w3.org/2000/svg" xmlns:xlink="http://www.w3.org/1999/xlink" x="0px" y="0px"
	 width="1242px" height="2208px" viewBox="0 0 1242 2208" enable-background="new 0 0 1242 2208" xml:space="preserve">
<linearGradient id="SVGID_1_" gradientUnits="userSpaceOnUse" x1="621.1421" y1="2422.0762" x2="621.142" y2="-264.96">
	<stop  offset="0.0299" style="stop-color:#6A431A"/>
	<stop  offset="0.1099" style="stop-color:#846439"/>
	<stop  offset="0.151" style="stop-color:#CAA12C"/>
	<stop  offset="0.1559" style="stop-color:#C7A63B"/>
	<stop  offset="0.1707" style="stop-color:#C0B263"/>
	<stop  offset="0.1871" style="stop-color:#B9BE86"/>
	<stop  offset="0.2047" style="stop-color:#B3C7A4"/>
	<stop  offset="0.2241" style="stop-color:#AFCFBC"/>
	<stop  offset="0.246" style="stop-color:#ABD5CE"/>
	<stop  offset="0.2719" style="stop-color:#A9D9DB"/>
	<stop  offset="0.3054" style="stop-color:#A7DBE3"/>
	<stop  offset="0.3747" style="stop-color:#A7DCE5"/>
	<stop  offset="0.4209" style="stop-color:#9CD3E4"/>
	<stop  offset="0.5393" style="stop-color:#87C1E2"/>
	<stop  offset="0.6534" style="stop-color:#79B6E1"/>
	<stop  offset="0.7577" style="stop-color:#75B2E1"/>
	<stop  offset="0.7966" style="stop-color:#6FBBDB"/>
	<stop  offset="0.8645" style="stop-color:#69C5D6"/>
	<stop  offset="0.9548" style="stop-color:#67C8D4"/>
</linearGradient>
<polygon fill="url(#SVGID_1_)" points="1241.705,2208.027 0,2207.888 0,0 1242.283,0 "/>
<g>
	<path opacity="0.4" fill="#FFFFFF" d="M1170.544,1825.946c0,0-91.833,0-185.095,0c-2.217,0.016-4.427,0.02-6.644,0.026
		c-14.609-1.198-27.856,8.95-41.982,10.94c-2.013,0.279-4.044,0.404-6.11,0.302c-2.091-0.283-4.147-0.726-6.169-1.274
		c-19.731-9.657-40.143-12.177-60.203-4.743c-2.92,0.246-5.858,0.45-8.785,0.59c-4.91,0.072-9.771-0.095-14.609-0.404
		c-2.431-0.163-4.832-0.359-7.253-0.567c-2.54-0.05-5.062-0.266-7.583-0.541c-28.823-0.621-60.221-9.029-87.688,4.422
		c-6.279,3.355-13.347-1.688-18.612-5.939c-1.45-1.077-2.845-2.193-4.151-3.31c2.255,0.525,4.48,0.795,6.641,0.878
		c14.551,1.642,26.324-13.481,40.454-6.764c9.413,4.202,11.771-10.085,21.655-8.738c0,0,38.849,0,45.906-13.856
		c7.068-13.867,17.662-37.815,34.146-32.784c16.478,5.054,22.368-18.895,43.562-25.2c21.185-6.303,52.969,5.042,52.969,5.042
		s21.2,13.867,30.613-2.52c9.419-16.387,25.897-30.254,36.494-26.475c10.59,3.782,37.674,10.088,38.842,16.39
		c1.185,6.303,16.443,37.744,9.404,37.782c-7.043,0.034-6.324,10.735-0.798,8.534c5.536-2.202,12.738-21.755,23.26-18.278
		c10.528,3.473,24.707-5.171,31.156,13.647c6.439,18.812,1.733,26.381,1.733,26.381s8.245-6.302,24.723,1.252
		C1172.898,1808.304,1170.544,1825.946,1170.544,1825.946z"/>
	<path opacity="0.4" fill="#FFFFFF" d="M1089.123,1822.387c0,0-58.74,0-118.399,0c-1.406,0.012-2.829,0.012-4.258,0.012
		c-9.344-0.76-17.809,5.73-26.848,7.006c-1.294,0.182-2.591,0.253-3.909,0.192c-1.338-0.185-2.65-0.469-3.953-0.816
		c-12.622-6.178-25.671-7.789-38.504-3.038c-1.871,0.159-3.749,0.284-5.626,0.382c-3.134,0.046-6.248-0.06-9.338-0.265
		c-1.558-0.098-3.096-0.223-4.653-0.352c-1.61-0.041-3.234-0.174-4.842-0.355c-18.434-0.401-38.525-5.772-56.089,2.822
		c-4.022,2.156-8.547-1.071-11.909-3.791c-0.933-0.685-1.821-1.403-2.663-2.122c1.45,0.337,2.866,0.519,4.255,0.575
		c9.303,1.036,16.838-8.636,25.871-4.335c6.032,2.689,7.533-6.449,13.856-5.587c0,0,24.857,0,29.37-8.871
		c4.527-8.866,11.3-24.187,21.843-20.963c10.531,3.227,14.306-12.102,27.856-16.126c13.567-4.024,33.889,3.227,33.889,3.227
		s13.561,8.874,19.586-1.615c6.025-10.479,16.563-19.353,23.344-16.928c6.779,2.417,24.104,6.449,24.858,10.481
		c0.744,4.029,10.519,24.142,6.01,24.168c-4.503,0.02-4.048,6.866-0.509,5.459c3.529-1.407,8.142-13.925,14.87-11.688
		c6.729,2.216,15.812-3.317,19.932,8.723c4.122,12.04,1.111,16.878,1.111,16.878s5.281-4.032,15.809,0.803
		C1090.639,1811.104,1089.123,1822.387,1089.123,1822.387z"/>
</g>
<g>
	<path opacity="0.4" fill="#FFFFFF" d="M81.084,1701.39c0,0,19.63-2.966,49.871-7.535c3.78-0.563,7.729-1.165,11.829-1.782
		c23.971-2.795,46.649-11.045,69.377-18.188c4.548-1.422,9.095-2.803,13.657-4.089c60.333-10.905,117.89-42.843,181.294-30.995
		c4.021-0.068,8.072-0.208,12.13-0.386c5.41-0.234,10.828-0.533,16.25-0.87c35.851-4.846,72.786-3.279,109.719-1.714
		c1.637-0.246,0.943-5.504,2.352-7.505c-34.356-7.315-68.729-2.122-103.797-10.315c-5.067-0.953-10.088-2.069-15.049-3.396
		c-14.872-3.976-29.17-9.858-42.411-19.118c-3.735-3.007-8.996-1.763-14.621-0.979c-5.611,0.779-11.58,1.112-16.802-3.7
		c-4.161-3.427-8.311-7.346-13.231-8.553c-4.115-2.428-8.721-4.418-14.126-5.182c-21.616-3.034-51.348,12.812-51.348,12.812
		s-19.008,16.746-30.375,2.069c-11.361-14.691-29.335-25.858-39.246-20.582c-9.911,5.293-35.673,15.49-36.014,21.846
		c-0.171,3.188-2.981,13.058-4.89,22.012c-1.906,8.946-2.906,16.98,0.558,16.474c6.918-1.003,7.583,9.631,1.887,8.28
		c-2.854-0.681-6.691-5.553-11.044-9.635c-4.347-4.078-9.22-7.368-14.159-4.883c-9.876,4.978-24.92-1.411-28.811,18.024
		c-3.892,19.424,1.707,26.153,1.707,26.153s-8.903-4.967-24.103,4.898C76.489,1684.424,81.084,1701.39,81.084,1701.39z"/>
	<path opacity="0.4" fill="#FFFFFF" d="M105.951,1693.063c0,0,8.295-1.252,22.07-3.332c4.592-0.692,9.794-1.476,15.502-2.346
		c22.779-3.272,43.304-8.825,65.217-16.062c4.382-1.445,8.817-2.962,13.343-4.535c3.702-1.453,7.463-2.474,11.264-3.192
		c3.955-0.833,7.934-1.358,12.054-1.813c26.015-0.669,49.875-9.635,75.603-17.094c30.637-8.209,61.509-14.658,93.252-12.782
		c6.424,0.522,12.872,1.343,19.239,2.051c5.705,0.62,11.341,1.157,16.959,1.301c11.068-1.082,22.985,0.688,33.751-6.298
		c-11.919-1.774-21.742-0.284-33.417-1.688c-5.088-0.128-10.103-0.204-15.11-0.325c-7.463-0.2-14.901-0.499-22.336-1.233
		c-3.719-0.374-7.437-0.851-11.146-1.475c-38.131-7.505-73.181-20.087-110.997-26.653c-4.724-0.317-9.429-0.196-14.114,0.557
		c-9.366,1.49-18.646,5.446-27.765,13.217c-4.821,1.83-10.74,2.235-15.146-3.484c-4.415-5.716-10.123-10.75-15.689-13.837
		c-5.572-3.091-10.997-4.233-14.854-2.175c-7.714,4.104-27.771,12.047-28.037,17.003c-0.134,2.474-2.324,10.164-3.807,17.128
		c-5.528,9.899,2.887,10.414,4.042,19.175c-4.912,0.749-5.837-6.269-10.73-7.399c-3.393-3.174-7.182-5.734-11.027-3.802
		c-7.689,3.87-19.401-1.101-22.431,14.026c-3.028,15.131,1.333,20.359,1.333,20.359s-6.934-3.87-18.767,3.813
		C102.375,1679.851,105.951,1693.063,105.951,1693.063z"/>
</g>
<path opacity="0.6" fill="#799A3D" d="M1173.847,2071.827c-32.368-5.1-63.995-12.926-95.063-21.524
	c-28.826-7.98-57.612-16.197-87.887-20.074c-22.031-1.767-44.368-1.086-66.45-0.133c-22.428,0.977-44.783,2.637-67.06,4.831
	c-38.023,4.198-75.582,10.474-113.687,14.245c-35.329,3.496-71.082,4.729-106.637,2.746c-38.943-2.159-77.88-7.051-115.472-15.281
	c-17.107-3.749-33.93-8.114-51.273-11.235c-13.648-2.451-27.402-4.448-41.252-6.045c-52.753-4.981-106.035-3.881-158.698,1.256
	c-90.002,9.994-177.269,30.921-262.335,55.38c0.259,59.26,0.567,132.617,0.567,131.854c0-1.305,1233.227,0.076,1233.227,0.076
	l0.251-129.479C1220.169,2077.531,1195.405,2075.22,1173.847,2071.827z"/>
<path opacity="0.2" fill="#8FB83E" d="M92.104,2070.741c17.894,0.616,35.384-4.044,51.123-8.7
	c28.854-6.412,54.651-18.933,81.321-29.418c5.332-2.096,10.704-4.108,16.139-5.98c30.773-10.652,63.271-16.168,95.802-17.151
	c6.507-0.2,13.014-0.219,19.511-0.053c48.036,2.009,94.579,11.355,137.239,27.542c5.334,2.02,10.619,4.157,15.898,6.442
	c18.832,10.455,41.567,13.958,66.05,13.958c-6.996-10.489-13.991-22.137-26.448-31.17c-3.612-2.799-7.546-5.436-11.738-7.921
	c-16.765-9.972-37.618-17.677-57.46-24.35c-5.132-2.02-10.256-4.059-15.395-6.075c-25.685-10.088-51.719-19.715-81.063-24.772
	c-5.368-1.014-10.784-1.906-16.252-2.659c-16.409-2.262-33.288-3.295-50.658-2.818c-6.152-0.072-12.272-0.03-18.387,0.129
	c-6.113,0.162-12.225,0.435-18.319,0.828c-6.095,0.386-12.173,0.893-18.22,1.524c-5.465,1.018-11.126,2.035-16.928,3.071
	c-5.818,1.048-11.774,2.111-17.867,3.254c-63.465,11.832-153.985,36.31-161.895,84.271c-0.716,4.361-0.746,8.919-0.005,13.67
	c1.815,3.496,9.041,2.326,13.423,5.054C82.134,2070.113,86.808,2070.571,92.104,2070.741z"/>
<path opacity="0.2" fill="#8FB83E" d="M751.647,2094.859c17.899,0.617,35.382-4.035,51.125-8.699
	c28.854-6.408,54.648-18.93,81.321-29.415c5.325-2.092,10.703-4.108,16.135-5.98c30.776-10.652,63.273-16.163,95.802-17.154
	c6.506-0.193,13.018-0.204,19.511-0.05c48.043,2.005,94.58,11.356,137.244,27.539c5.332,2.027,10.616,4.156,15.894,6.445
	c18.836,10.459,41.571,13.954,66.052,13.954c-6.992-10.485-13.99-22.132-26.446-31.161c-3.613-2.8-7.554-5.437-11.739-7.922
	c-16.764-9.971-37.618-17.677-57.462-24.35c-5.134-2.027-10.255-4.059-15.395-6.078c-25.687-10.085-51.716-19.712-81.063-24.77
	c-5.365-1.018-10.778-1.906-16.251-2.663c-16.402-2.262-33.285-3.295-50.658-2.817c-6.15-0.072-12.264-0.034-18.38,0.128
	c-6.12,0.159-12.229,0.432-18.321,0.829c-6.098,0.385-12.176,0.896-18.227,1.521c-5.46,1.018-11.118,2.038-16.923,3.075
	c-5.821,1.048-11.774,2.114-17.872,3.257c-63.462,11.828-153.982,36.311-161.892,84.271c-0.713,4.357-0.744,8.912-0.006,13.671
	c1.817,3.491,9.042,2.322,13.426,5.05C741.678,2094.235,746.351,2094.693,751.647,2094.859z"/>
<path opacity="0.2" fill="#8FB83E" d="M671.561,2023.548c39.498,3.79,78.623-6.181,117.827-13.837
	c3.563-0.692,7.13-1.365,10.703-2.013c20.337-5.613,40.78-8.65,60.899-8.704c4.029-0.011,8.038,0.099,12.038,0.333
	c3.862,0.503,7.733,0.953,11.608,1.381c3.878,0.424,7.765,0.813,11.646,1.207c22.88,4.581,50.064,2.379,74.938,4.505
	c3.561,0.311,7.074,0.703,10.534,1.226c9.671,3.45,20.537,6.457,31.508,9.956c2.191,0.696,4.402,1.415,6.594,2.156
	c9.4,3.806,18.813,6.669,28.208,9.385c3.127,0.912,6.255,1.801,9.382,2.705c3.026,1.195,6.063,2.311,9.114,3.358
	c3.046,1.048,6.107,2.017,9.178,2.929c31.068,7.773,71.996,19.012,89.837,2.155c15.742-14.604-31.483-23.593-49.584-37.86
	c-2.801-1.673-5.599-3.352-8.393-5.039c-25.169-15.176-50.193-30.686-76.43-43.055c-17.9-7.679-36.303-13.459-55.354-16.742
	c-11.872-1.415-23.769-1.944-35.659-1.854c-5.541,3.275-11.626,4.648-18.49,5.405c-0.53,0.061-1.067,0.136-1.602,0.204
	c-9.293,1.581-18.496,3.719-27.62,6.249c-3.111,0.878-6.214,1.801-9.389,2.78c-3.654,1.453-7.331,2.849-11.021,4.21
	c-3.698,1.374-7.413,2.701-11.152,4.014c-3.724,1.343-7.467,2.645-11.212,3.915c-3.759,1.275-7.523,2.516-11.307,3.733
	c-55.832,22.353-117.746,27.974-171.271,57.184c1.052,0,1.052,0,2.054-0.473C669.864,2023.144,670.665,2023.34,671.561,2023.548z"/>
<path fill="#8FB83E" d="M934.754,2086.742c-2.948-1.332-5.894-2.663-8.832-3.994
	C928.854,2084.102,931.803,2085.422,934.754,2086.742z"/>
<g>
	<g>
		<g>
			<linearGradient id="SVGID_2_" gradientUnits="userSpaceOnUse" x1="1114.6885" y1="2094.4238" x2="1222.9761" y2="2395.0313">
				<stop  offset="0.025" style="stop-color:#3B491F"/>
				<stop  offset="0.2779" style="stop-color:#6E8036"/>
				<stop  offset="0.4978" style="stop-color:#7D9839"/>
				<stop  offset="0.8086" style="stop-color:#95C03D"/>
			</linearGradient>
			<path fill="url(#SVGID_2_)" d="M1197.71,2207.369c-2.516-6.495-4.591-13.338-6.18-20.514
				c-7.036-31.556-10.411-80.508-0.685-111.636c-24.88,0.151-37.646-24.936-77.516,9.037
				c-27.328,23.268-37.395,79.497-41.03,123.112H1197.71z"/>
			<linearGradient id="SVGID_3_" gradientUnits="userSpaceOnUse" x1="1136.9639" y1="1968.3564" x2="1144.6097" y2="2187.3076">
				<stop  offset="0.3427" style="stop-color:#45612D"/>
				<stop  offset="0.3917" style="stop-color:#48642E"/>
				<stop  offset="0.4299" style="stop-color:#506E2F"/>
				<stop  offset="0.4645" style="stop-color:#5E7E32"/>
				<stop  offset="0.4969" style="stop-color:#719636"/>
				<stop  offset="0.5275" style="stop-color:#8BB43B"/>
				<stop  offset="0.5382" style="stop-color:#95C03D"/>
				<stop  offset="0.5761" style="stop-color:#92BC3D"/>
				<stop  offset="0.6174" style="stop-color:#8AAF3B"/>
				<stop  offset="0.66" style="stop-color:#7D9939"/>
				<stop  offset="0.6968" style="stop-color:#6E8036"/>
				<stop  offset="0.7536" style="stop-color:#566E31"/>
				<stop  offset="0.7892" style="stop-color:#45612D"/>
			</linearGradient>
			<path fill="url(#SVGID_3_)" d="M1073.577,2207.369c3.128-36.575,10.205-79.6,26.151-99.887
				c41.254-52.48,57.575-12.475,57.575,4.305c0,39.359-27.659,38.285-27.659,38.285s62.564,16.776,80.241-9.037
				c17.681-25.809,23.803-74.852-25.834-74.852c-40.827,0-62.596-8.474-95.205,41.299c-15.838,24.184-22.259,65.244-24.732,99.887
				H1073.577z"/>
			<path fill="#7E993C" d="M1073.584,2207.369c3.121-36.125,10.191-78.582,26.098-98.809c41.248-52.484,57.571-12.479,57.571,4.297
				c0,39.367-27.658,38.289-27.658,38.289s1.447,0.386,3.931,0.949c8.11-1.244,27.363-7.905,27.363-43.209
				c0-19.058-18.235-64.507-64.334-4.892c-16.503,21.35-24.463,64.4-28.303,103.374H1073.584z"/>
		</g>
		<g>
			<linearGradient id="SVGID_4_" gradientUnits="userSpaceOnUse" x1="1007.6631" y1="2069.1387" x2="1115.9801" y2="2369.8281">
				<stop  offset="0.025" style="stop-color:#3B491F"/>
				<stop  offset="0.2779" style="stop-color:#6E8036"/>
				<stop  offset="0.4978" style="stop-color:#7D9839"/>
				<stop  offset="0.8086" style="stop-color:#95C03D"/>
			</linearGradient>
			<path fill="url(#SVGID_4_)" d="M1110.712,2207.369c-10.214-13.198-17.118-29.403-21.181-47.621
				c-7.03-31.547-10.409-80.507-0.685-111.627c-24.88,0.146-37.641-24.937-77.519,9.033
				c-33.489,28.528-41.069,106.593-42.626,150.215H1110.712z"/>
			<linearGradient id="SVGID_5_" gradientUnits="userSpaceOnUse" x1="1033.8525" y1="1941.2852" x2="1041.4994" y2="2160.2634">
				<stop  offset="0.3427" style="stop-color:#45612D"/>
				<stop  offset="0.3917" style="stop-color:#48642E"/>
				<stop  offset="0.4299" style="stop-color:#506E2F"/>
				<stop  offset="0.4645" style="stop-color:#5E7E32"/>
				<stop  offset="0.4969" style="stop-color:#719636"/>
				<stop  offset="0.5275" style="stop-color:#8BB43B"/>
				<stop  offset="0.5382" style="stop-color:#95C03D"/>
				<stop  offset="0.5761" style="stop-color:#92BC3D"/>
				<stop  offset="0.6174" style="stop-color:#8AAF3B"/>
				<stop  offset="0.66" style="stop-color:#7D9939"/>
				<stop  offset="0.6968" style="stop-color:#6E8036"/>
				<stop  offset="0.7536" style="stop-color:#566E31"/>
				<stop  offset="0.7892" style="stop-color:#45612D"/>
			</linearGradient>
			<path fill="url(#SVGID_5_)" d="M969.842,2207.369c1.739-39.34,7.736-101.343,27.894-126.989
				c41.254-52.481,57.568-12.476,57.568,4.305c0,39.358-27.655,38.288-27.655,38.288s62.561,16.776,80.244-9.037
				c17.677-25.805,23.8-74.852-25.841-74.852c-40.827,0-62.595-8.474-95.199,41.296c-20.283,30.965-25.121,89.59-26.025,126.989
				H969.842z"/>
			<path fill="#7E993C" d="M969.822,2207.369c1.73-38.916,7.702-100.269,27.863-125.911c41.25-52.481,57.571-12.476,57.571,4.305
				c0,39.358-27.652,38.28-27.652,38.28s1.432,0.387,3.925,0.95c8.106-1.245,27.357-7.906,27.357-43.21
				c0-19.054-18.233-64.507-64.332-4.892c-20.475,26.491-27.806,86.413-30.415,130.478H969.822z"/>
		</g>
		<g>
			<linearGradient id="SVGID_6_" gradientUnits="userSpaceOnUse" x1="857.3789" y1="2041.6816" x2="965.8939" y2="2342.9204">
				<stop  offset="0.025" style="stop-color:#3B491F"/>
				<stop  offset="0.2779" style="stop-color:#6E8036"/>
				<stop  offset="0.4978" style="stop-color:#7D9839"/>
				<stop  offset="0.8086" style="stop-color:#95C03D"/>
			</linearGradient>
			<path fill="url(#SVGID_6_)" d="M1005.491,2207.369c-34.297-12.373-53.421-40.69-61.48-76.819
				c-7.03-31.56-10.399-80.511-0.676-111.636c-24.88,0.147-37.643-24.936-77.519,9.033c-44.84,38.194-43.234,165.135-42.908,179.422
				H1005.491z"/>
			<linearGradient id="SVGID_7_" gradientUnits="userSpaceOnUse" x1="887.8301" y1="1912.0811" x2="895.478" y2="2131.0891">
				<stop  offset="0.3427" style="stop-color:#45612D"/>
				<stop  offset="0.3917" style="stop-color:#48642E"/>
				<stop  offset="0.4299" style="stop-color:#506E2F"/>
				<stop  offset="0.4645" style="stop-color:#5E7E32"/>
				<stop  offset="0.4969" style="stop-color:#719636"/>
				<stop  offset="0.5275" style="stop-color:#8BB43B"/>
				<stop  offset="0.5382" style="stop-color:#95C03D"/>
				<stop  offset="0.5761" style="stop-color:#92BC3D"/>
				<stop  offset="0.6174" style="stop-color:#8AAF3B"/>
				<stop  offset="0.66" style="stop-color:#7D9939"/>
				<stop  offset="0.6968" style="stop-color:#6E8036"/>
				<stop  offset="0.7536" style="stop-color:#566E31"/>
				<stop  offset="0.7892" style="stop-color:#45612D"/>
			</linearGradient>
			<path fill="url(#SVGID_7_)" d="M823.63,2207.369c0.032-24.263,1.85-122.182,28.582-156.195
				c41.257-52.482,57.577-12.476,57.577,4.301c0,39.366-27.658,38.292-27.658,38.292s62.561,16.776,80.241-9.037
				c17.68-25.813,23.803-74.853-25.838-74.853c-40.82,0-62.595-8.477-95.195,41.297c-27.316,41.696-26.632,133.567-26.017,156.195
				H823.63z"/>
			<path fill="#7E993C" d="M823.63,2207.369c0.01-23.457,1.692-120.964,28.535-155.114c41.25-52.485,57.571-12.479,57.571,4.302
				c0,39.362-27.652,38.284-27.652,38.284s1.447,0.382,3.925,0.949c8.11-1.244,27.363-7.905,27.363-43.214
				c0-19.053-18.232-64.498-64.335-4.883c-25.576,33.076-30.647,118.327-31.62,159.676H823.63z"/>
		</g>
		<g>
			<linearGradient id="SVGID_8_" gradientUnits="userSpaceOnUse" x1="757.3672" y1="2096.0674" x2="865.6556" y2="2396.6772">
				<stop  offset="0.025" style="stop-color:#3B491F"/>
				<stop  offset="0.2779" style="stop-color:#6E8036"/>
				<stop  offset="0.4978" style="stop-color:#7D9839"/>
				<stop  offset="0.8086" style="stop-color:#95C03D"/>
			</linearGradient>
			<path fill="url(#SVGID_8_)" d="M839.396,2207.369c-2.217-5.969-4.082-12.215-5.539-18.743
				c-7.036-31.556-10.408-80.516-0.682-111.64c-24.876,0.155-37.637-24.932-77.515,9.033
				c-26.949,22.961-37.119,77.996-40.878,121.35H839.396z"/>
			<linearGradient id="SVGID_9_" gradientUnits="userSpaceOnUse" x1="779.3857" y1="1970.1201" x2="787.0317" y2="2189.0725">
				<stop  offset="0.3427" style="stop-color:#45612D"/>
				<stop  offset="0.3917" style="stop-color:#48642E"/>
				<stop  offset="0.4299" style="stop-color:#506E2F"/>
				<stop  offset="0.4645" style="stop-color:#5E7E32"/>
				<stop  offset="0.4969" style="stop-color:#719636"/>
				<stop  offset="0.5275" style="stop-color:#8BB43B"/>
				<stop  offset="0.5382" style="stop-color:#95C03D"/>
				<stop  offset="0.5761" style="stop-color:#92BC3D"/>
				<stop  offset="0.6174" style="stop-color:#8AAF3B"/>
				<stop  offset="0.66" style="stop-color:#7D9939"/>
				<stop  offset="0.6968" style="stop-color:#6E8036"/>
				<stop  offset="0.7536" style="stop-color:#566E31"/>
				<stop  offset="0.7892" style="stop-color:#45612D"/>
			</linearGradient>
			<path fill="url(#SVGID_9_)" d="M716.061,2207.369c3.209-36.182,10.308-78.154,26.001-98.116
				c41.254-52.481,57.571-12.479,57.571,4.301c0,39.359-27.652,38.285-27.652,38.285s62.561,16.78,80.231-9.033
				c17.681-25.806,23.803-74.856-25.834-74.856c-40.817,0-62.593-8.469-95.199,41.304c-15.573,23.774-22.041,63.853-24.609,98.116
				H716.061z"/>
			<path fill="#7E993C" d="M716.073,2207.369c3.202-35.735,10.295-77.141,25.935-97.038c41.257-52.485,57.578-12.476,57.578,4.305
				c0,39.359-27.652,38.277-27.652,38.277s1.438,0.39,3.918,0.953c8.11-1.244,27.363-7.909,27.363-43.214
				c0-19.053-18.232-64.503-64.334-4.887c-16.246,21.021-24.224,63.104-28.12,101.604H716.073z"/>
		</g>
		<g>
			<linearGradient id="SVGID_10_" gradientUnits="userSpaceOnUse" x1="650.3047" y1="2070.7939" x2="758.6172" y2="2371.4707">
				<stop  offset="0.025" style="stop-color:#3B491F"/>
				<stop  offset="0.2779" style="stop-color:#6E8036"/>
				<stop  offset="0.4978" style="stop-color:#7D9839"/>
				<stop  offset="0.8086" style="stop-color:#95C03D"/>
			</linearGradient>
			<path fill="url(#SVGID_10_)" d="M751.691,2207.369c-9.482-12.865-15.95-28.442-19.831-45.851
				c-7.033-31.552-10.405-80.507-0.682-111.636c-24.877,0.156-37.644-24.932-77.519,9.033
				c-33.046,28.155-40.868,104.517-42.563,148.453H751.691z"/>
			<linearGradient id="SVGID_11_" gradientUnits="userSpaceOnUse" x1="676.2354" y1="1943.0459" x2="683.8823" y2="2162.0266">
				<stop  offset="0.3427" style="stop-color:#45612D"/>
				<stop  offset="0.3917" style="stop-color:#48642E"/>
				<stop  offset="0.4299" style="stop-color:#506E2F"/>
				<stop  offset="0.4645" style="stop-color:#5E7E32"/>
				<stop  offset="0.4969" style="stop-color:#719636"/>
				<stop  offset="0.5275" style="stop-color:#8BB43B"/>
				<stop  offset="0.5382" style="stop-color:#95C03D"/>
				<stop  offset="0.5761" style="stop-color:#92BC3D"/>
				<stop  offset="0.6174" style="stop-color:#8AAF3B"/>
				<stop  offset="0.66" style="stop-color:#7D9939"/>
				<stop  offset="0.6968" style="stop-color:#6E8036"/>
				<stop  offset="0.7536" style="stop-color:#566E31"/>
				<stop  offset="0.7892" style="stop-color:#45612D"/>
			</linearGradient>
			<path fill="url(#SVGID_11_)" d="M612.255,2207.369c1.84-39.412,7.944-99.951,27.806-125.219
				c41.251-52.481,57.571-12.476,57.571,4.305c0,39.362-27.652,38.281-27.652,38.281s62.561,16.783,80.238-9.033
				c17.677-25.817,23.8-74.853-25.841-74.853c-40.82,0-62.595-8.474-95.195,41.3c-19.973,30.484-24.971,87.759-25.976,125.219
				H612.255z"/>
			<path fill="#7E993C" d="M612.243,2207.369c1.827-38.98,7.915-98.88,27.774-124.141c41.248-52.482,57.568-12.479,57.568,4.301
				c0,39.362-27.655,38.288-27.655,38.288s1.444,0.382,3.928,0.946c8.104-1.241,27.363-7.906,27.363-43.207
				c0-19.064-18.239-64.51-64.338-4.895c-20.208,26.139-27.605,84.824-30.305,128.707H612.243z"/>
		</g>
	</g>
	<g>
		<g>
			
				<linearGradient id="SVGID_12_" gradientUnits="userSpaceOnUse" x1="723.8926" y1="2095.0518" x2="832.1794" y2="2395.6572" gradientTransform="matrix(-1 0 0 1 846.8906 0)">
				<stop  offset="0.025" style="stop-color:#3B491F"/>
				<stop  offset="0.2779" style="stop-color:#6E8036"/>
				<stop  offset="0.4978" style="stop-color:#7D9839"/>
				<stop  offset="0.8086" style="stop-color:#95C03D"/>
			</linearGradient>
			<path fill="url(#SVGID_12_)" d="M39.982,2207.997c2.509-6.495,4.583-13.334,6.182-20.514c7.035-31.56,10.405-80.515,0.68-111.64
				c24.881,0.155,37.645-24.932,77.517,9.041c27.327,23.268,37.396,79.502,41.023,123.112H39.982z"/>
			
				<linearGradient id="SVGID_13_" gradientUnits="userSpaceOnUse" x1="747.291" y1="1968.4355" x2="754.937" y2="2187.3882" gradientTransform="matrix(-1 0 0 1 846.8906 0)">
				<stop  offset="0.3427" style="stop-color:#45612D"/>
				<stop  offset="0.3917" style="stop-color:#48642E"/>
				<stop  offset="0.4299" style="stop-color:#506E2F"/>
				<stop  offset="0.4645" style="stop-color:#5E7E32"/>
				<stop  offset="0.4969" style="stop-color:#719636"/>
				<stop  offset="0.5275" style="stop-color:#8BB43B"/>
				<stop  offset="0.5382" style="stop-color:#95C03D"/>
				<stop  offset="0.5761" style="stop-color:#92BC3D"/>
				<stop  offset="0.6174" style="stop-color:#8AAF3B"/>
				<stop  offset="0.66" style="stop-color:#7D9939"/>
				<stop  offset="0.6968" style="stop-color:#6E8036"/>
				<stop  offset="0.7536" style="stop-color:#566E31"/>
				<stop  offset="0.7892" style="stop-color:#45612D"/>
			</linearGradient>
			<path fill="url(#SVGID_13_)" d="M162.981,2207.448c-3.125-36.575-10.205-79.603-26.148-99.886
				c-41.254-52.485-57.571-12.472-57.571,4.301c0,39.363,27.652,38.289,27.652,38.289s-62.559,16.775-80.239-9.033
				c-17.68-25.813-23.8-74.856,25.839-74.856c40.821,0,62.594-8.478,95.199,41.3c15.84,24.183,22.26,65.244,24.742,99.886H162.981z"
				/>
			<path fill="#7E993C" d="M162.978,2207.448c-3.127-36.128-10.197-78.582-26.097-98.808c-41.251-52.485-57.573-12.476-57.573,4.293
				c0,39.367,27.654,38.293,27.654,38.293s-1.438,0.382-3.926,0.945c-8.108-1.241-27.363-7.902-27.363-43.206
				c0-19.062,18.236-64.511,64.333-4.892c16.506,21.342,24.464,64.397,28.305,103.374H162.978z"/>
		</g>
		<g>
			
				<linearGradient id="SVGID_14_" gradientUnits="userSpaceOnUse" x1="617.9937" y1="2069.2178" x2="726.3101" y2="2369.9055" gradientTransform="matrix(-1 0 0 1 846.8906 0)">
				<stop  offset="0.025" style="stop-color:#3B491F"/>
				<stop  offset="0.2779" style="stop-color:#6E8036"/>
				<stop  offset="0.4978" style="stop-color:#7D9839"/>
				<stop  offset="0.8086" style="stop-color:#95C03D"/>
			</linearGradient>
			<path fill="url(#SVGID_14_)" d="M125.85,2207.448c10.219-13.194,17.123-29.399,21.183-47.62
				c7.032-31.552,10.405-80.504,0.68-111.632c24.88,0.151,37.645-24.932,77.521,9.037c33.495,28.532,41.07,106.589,42.626,150.215
				H125.85z"/>
			
				<linearGradient id="SVGID_15_" gradientUnits="userSpaceOnUse" x1="644.1797" y1="1941.3594" x2="651.8267" y2="2160.3416" gradientTransform="matrix(-1 0 0 1 846.8906 0)">
				<stop  offset="0.3427" style="stop-color:#45612D"/>
				<stop  offset="0.3917" style="stop-color:#48642E"/>
				<stop  offset="0.4299" style="stop-color:#506E2F"/>
				<stop  offset="0.4645" style="stop-color:#5E7E32"/>
				<stop  offset="0.4969" style="stop-color:#719636"/>
				<stop  offset="0.5275" style="stop-color:#8BB43B"/>
				<stop  offset="0.5382" style="stop-color:#95C03D"/>
				<stop  offset="0.5761" style="stop-color:#92BC3D"/>
				<stop  offset="0.6174" style="stop-color:#8AAF3B"/>
				<stop  offset="0.66" style="stop-color:#7D9939"/>
				<stop  offset="0.6968" style="stop-color:#6E8036"/>
				<stop  offset="0.7536" style="stop-color:#566E31"/>
				<stop  offset="0.7892" style="stop-color:#45612D"/>
			</linearGradient>
			<path fill="url(#SVGID_15_)" d="M266.722,2207.448c-1.743-39.344-7.735-101.343-27.894-126.993
				c-41.251-52.478-57.568-12.475-57.568,4.309c0,39.363,27.649,38.289,27.649,38.289s-62.557,16.776-80.237-9.037
				c-17.677-25.81-23.797-74.856,25.84-74.856c40.824,0,62.594-8.47,95.199,41.296c20.282,30.966,25.124,89.59,26.023,126.993
				H266.722z"/>
			<path fill="#7E993C" d="M266.731,2207.448c-1.724-38.912-7.694-100.269-27.85-125.915c-41.257-52.474-57.573-12.468-57.573,4.305
				c0,39.359,27.65,38.289,27.65,38.289s-1.438,0.386-3.929,0.945c-8.107-1.24-27.359-7.902-27.359-43.214
				c0-19.058,18.238-64.499,64.333-4.884c20.478,26.487,27.808,86.405,30.418,130.474H266.731z"/>
		</g>
		<g>
			
				<linearGradient id="SVGID_16_" gradientUnits="userSpaceOnUse" x1="467.7051" y1="2041.7598" x2="576.2215" y2="2343.0024" gradientTransform="matrix(-1 0 0 1 846.8906 0)">
				<stop  offset="0.025" style="stop-color:#3B491F"/>
				<stop  offset="0.2779" style="stop-color:#6E8036"/>
				<stop  offset="0.4978" style="stop-color:#7D9839"/>
				<stop  offset="0.8086" style="stop-color:#95C03D"/>
			</linearGradient>
			<path fill="url(#SVGID_16_)" d="M231.069,2207.448c34.296-12.377,53.424-40.694,61.477-76.823
				c7.035-31.555,10.409-80.511,0.683-111.635c24.88,0.151,37.642-24.936,77.516,9.033c44.839,38.197,43.238,165.134,42.912,179.425
				H231.069z"/>
			
				<linearGradient id="SVGID_17_" gradientUnits="userSpaceOnUse" x1="498.1563" y1="1912.1553" x2="505.8043" y2="2131.1665" gradientTransform="matrix(-1 0 0 1 846.8906 0)">
				<stop  offset="0.3427" style="stop-color:#45612D"/>
				<stop  offset="0.3917" style="stop-color:#48642E"/>
				<stop  offset="0.4299" style="stop-color:#506E2F"/>
				<stop  offset="0.4645" style="stop-color:#5E7E32"/>
				<stop  offset="0.4969" style="stop-color:#719636"/>
				<stop  offset="0.5275" style="stop-color:#8BB43B"/>
				<stop  offset="0.5382" style="stop-color:#95C03D"/>
				<stop  offset="0.5761" style="stop-color:#92BC3D"/>
				<stop  offset="0.6174" style="stop-color:#8AAF3B"/>
				<stop  offset="0.66" style="stop-color:#7D9939"/>
				<stop  offset="0.6968" style="stop-color:#6E8036"/>
				<stop  offset="0.7536" style="stop-color:#566E31"/>
				<stop  offset="0.7892" style="stop-color:#45612D"/>
			</linearGradient>
			<path fill="url(#SVGID_17_)" d="M412.931,2207.448c-0.031-24.259-1.853-122.182-28.586-156.199
				c-41.25-52.481-57.573-12.468-57.573,4.305c0,39.366,27.655,38.288,27.655,38.288s-62.561,16.78-80.239-9.036
				c-17.677-25.806-23.8-74.853,25.841-74.853c40.822,0,62.59-8.474,95.196,41.296c27.312,41.7,26.627,133.575,26.02,156.199
				H412.931z"/>
			<path fill="#7E993C" d="M412.931,2207.448c-0.004-23.46-1.692-120.964-28.536-155.121c-41.252-52.478-57.571-12.468-57.571,4.305
				c0,39.366,27.651,38.288,27.651,38.288s-1.441,0.387-3.926,0.946c-8.109-1.241-27.36-7.902-27.36-43.214
				c0-19.054,18.234-64.499,64.333-4.884c25.575,33.084,30.649,118.331,31.625,159.68H412.931z"/>
		</g>
		<g>
			
				<linearGradient id="SVGID_18_" gradientUnits="userSpaceOnUse" x1="367.6963" y1="2096.1436" x2="475.9868" y2="2396.7593" gradientTransform="matrix(-1 0 0 1 846.8906 0)">
				<stop  offset="0.025" style="stop-color:#3B491F"/>
				<stop  offset="0.2779" style="stop-color:#6E8036"/>
				<stop  offset="0.4978" style="stop-color:#7D9839"/>
				<stop  offset="0.8086" style="stop-color:#95C03D"/>
			</linearGradient>
			<path fill="url(#SVGID_18_)" d="M397.165,2207.448c2.218-5.973,4.082-12.21,5.537-18.747
				c7.037-31.555,10.41-80.508,0.683-111.631c24.883,0.146,37.643-24.939,77.52,9.029c26.951,22.965,37.117,77.995,40.874,121.349
				H397.165z"/>
			
				<linearGradient id="SVGID_19_" gradientUnits="userSpaceOnUse" x1="389.7148" y1="1970.1982" x2="397.3608" y2="2189.1506" gradientTransform="matrix(-1 0 0 1 846.8906 0)">
				<stop  offset="0.3427" style="stop-color:#45612D"/>
				<stop  offset="0.3917" style="stop-color:#48642E"/>
				<stop  offset="0.4299" style="stop-color:#506E2F"/>
				<stop  offset="0.4645" style="stop-color:#5E7E32"/>
				<stop  offset="0.4969" style="stop-color:#719636"/>
				<stop  offset="0.5275" style="stop-color:#8BB43B"/>
				<stop  offset="0.5382" style="stop-color:#95C03D"/>
				<stop  offset="0.5761" style="stop-color:#92BC3D"/>
				<stop  offset="0.6174" style="stop-color:#8AAF3B"/>
				<stop  offset="0.66" style="stop-color:#7D9939"/>
				<stop  offset="0.6968" style="stop-color:#6E8036"/>
				<stop  offset="0.7536" style="stop-color:#566E31"/>
				<stop  offset="0.7892" style="stop-color:#45612D"/>
			</linearGradient>
			<path fill="url(#SVGID_19_)" d="M520.498,2207.448c-3.204-36.182-10.308-78.158-25.996-98.116
				c-41.252-52.484-57.572-12.482-57.572,4.298c0,39.362,27.652,38.288,27.652,38.288s-62.557,16.776-80.238-9.037
				c-17.677-25.805-23.798-74.852,25.841-74.852c40.822,0,62.59-8.474,95.197,41.303c15.57,23.775,22.04,63.853,24.611,98.116
				H520.498z"/>
			<path fill="#7E993C" d="M520.492,2207.448c-3.203-35.739-10.299-77.141-25.939-97.042c-41.254-52.48-57.572-12.479-57.572,4.302
				c0,39.366,27.651,38.284,27.651,38.284s-1.439,0.391-3.928,0.95c-8.105-1.241-27.357-7.906-27.357-43.21
				c0-19.058,18.231-64.503,64.332-4.888c16.253,21.021,24.222,63.104,28.128,101.604H520.492z"/>
		</g>
		<g>
			
				<linearGradient id="SVGID_20_" gradientUnits="userSpaceOnUse" x1="260.6367" y1="2070.8721" x2="368.9486" y2="2371.5471" gradientTransform="matrix(-1 0 0 1 846.8906 0)">
				<stop  offset="0.025" style="stop-color:#3B491F"/>
				<stop  offset="0.2779" style="stop-color:#6E8036"/>
				<stop  offset="0.4978" style="stop-color:#7D9839"/>
				<stop  offset="0.8086" style="stop-color:#95C03D"/>
			</linearGradient>
			<path fill="url(#SVGID_20_)" d="M484.872,2207.448c9.48-12.868,15.952-28.446,19.831-45.854
				c7.033-31.548,10.407-80.504,0.68-111.632c24.878,0.151,37.645-24.932,77.519,9.037c33.046,28.15,40.864,104.513,42.557,148.448
				H484.872z"/>
			
				<linearGradient id="SVGID_21_" gradientUnits="userSpaceOnUse" x1="286.5659" y1="1943.1191" x2="294.213" y2="2162.105" gradientTransform="matrix(-1 0 0 1 846.8906 0)">
				<stop  offset="0.3427" style="stop-color:#45612D"/>
				<stop  offset="0.3917" style="stop-color:#48642E"/>
				<stop  offset="0.4299" style="stop-color:#506E2F"/>
				<stop  offset="0.4645" style="stop-color:#5E7E32"/>
				<stop  offset="0.4969" style="stop-color:#719636"/>
				<stop  offset="0.5275" style="stop-color:#8BB43B"/>
				<stop  offset="0.5382" style="stop-color:#95C03D"/>
				<stop  offset="0.5761" style="stop-color:#92BC3D"/>
				<stop  offset="0.6174" style="stop-color:#8AAF3B"/>
				<stop  offset="0.66" style="stop-color:#7D9939"/>
				<stop  offset="0.6968" style="stop-color:#6E8036"/>
				<stop  offset="0.7536" style="stop-color:#566E31"/>
				<stop  offset="0.7892" style="stop-color:#45612D"/>
			</linearGradient>
			<path fill="url(#SVGID_21_)" d="M624.31,2207.448c-1.837-39.415-7.95-99.946-27.81-125.223
				c-41.251-52.478-57.571-12.468-57.571,4.305c0,39.366,27.655,38.285,27.655,38.285s-62.559,16.776-80.241-9.033
				c-17.68-25.817-23.798-74.856,25.839-74.856c40.821,0,62.597-8.473,95.2,41.3c19.966,30.489,24.968,87.767,25.969,125.223H624.31
				z"/>
			<path fill="#7E993C" d="M624.315,2207.448c-1.821-38.98-7.909-98.88-27.771-124.145c-41.251-52.485-57.567-12.476-57.567,4.305
				c0,39.359,27.651,38.288,27.651,38.288s-1.435,0.379-3.928,0.946c-8.104-1.241-27.36-7.909-27.36-43.214
				c0-19.054,18.239-64.503,64.334-4.887c20.211,26.142,27.615,84.815,30.305,128.706H624.315z"/>
		</g>
	</g>
</g>
</svg>
